<svg xmlns="http://www.w3.org/2000/svg" xmlns:xlink="http://www.w3.org/1999/xlink" viewBox="0 0 400 400"><defs><style>.cls-1{isolation:isolate;}.cls-2,.cls-3{fill:#ffbfb0;}.cls-10,.cls-12,.cls-14,.cls-18,.cls-28,.cls-29,.cls-3,.cls-30,.cls-6,.cls-7{mix-blend-mode:multiply;}.cls-4{fill:#fff;}.cls-5,.cls-6,.cls-7{fill:#9e7059;}.cls-18,.cls-6,.cls-9{opacity:0.5;}.cls-8{fill:#db4d4d;}.cls-10,.cls-19{fill:#b74c41;}.cls-11{fill:#f4bd40;}.cls-13,.cls-14{fill:#4f5259;}.cls-15{fill:#b6cbff;}.cls-16{fill:#2c3547;}.cls-17{fill:#5b7ad3;}.cls-20{fill:#c9c097;}.cls-21{fill:#558e5c;}.cls-22{fill:#c84c4d;}.cls-23{fill:#5b3b3b;}.cls-24{fill:url(#未命名的渐变_41);}.cls-25{fill:url(#未命名的渐变_41-2);}.cls-26,.cls-30{fill:url(#未命名的渐变_41-3);}.cls-27{opacity:0.6;}.cls-28{fill:url(#未命名的渐变_41-4);}.cls-29{fill:url(#未命名的渐变_41-5);}</style><linearGradient id="未命名的渐变_41" x1="221.74" y1="92.53" x2="243.53" y2="92.53" gradientUnits="userSpaceOnUse"><stop offset="0" stop-color="#b74c41"/><stop offset="1" stop-color="#b74337"/></linearGradient><linearGradient id="未命名的渐变_41-2" x1="217.96" y1="124.55" x2="231.6" y2="124.55" xlink:href="#未命名的渐变_41"/><linearGradient id="未命名的渐变_41-3" x1="205.37" y1="138.51" x2="218.25" y2="138.51" xlink:href="#未命名的渐变_41"/><linearGradient id="未命名的渐变_41-4" x1="221.74" y1="92.79" x2="243.53" y2="92.79" xlink:href="#未命名的渐变_41"/><linearGradient id="未命名的渐变_41-5" x1="217.96" y1="124.86" x2="231.6" y2="124.86" xlink:href="#未命名的渐变_41"/></defs><title>元素整理</title><g class="cls-1"><g id="图层_3" data-name="图层 3"><path class="cls-2" d="M262.14,294.27a86.49,86.49,0,0,1-10.75-9.1,108.64,108.64,0,0,0,31.31-6.89c9,10.05,35.72,33.21,39.78,36.79l0,.07a14,14,0,0,0,7,5.32c1.74.61,3.58.94,5.26,1.69a19.89,19.89,0,0,1,6.05,4.8,74.86,74.86,0,0,1,6.45,7.88,2.07,2.07,0,0,1,.43.88.73.73,0,0,1-.43.81l-.11.21-.78-.42c-11.2-4.24-22.67-9.6-32.92-16.62C296.27,313,277.22,305.22,262.14,294.27Z"/><path class="cls-3" d="M347.27,334.83a74.86,74.86,0,0,0-6.45-7.88,19.89,19.89,0,0,0-6.05-4.8c-1.68-.75-3.52-1.08-5.26-1.69a14,14,0,0,1-7-5.32l0-.07c-4.06-3.58-30.79-26.74-39.78-36.79a108.64,108.64,0,0,1-31.31,6.89,77.94,77.94,0,0,0,6.61,5.91,87.78,87.78,0,0,0,24.34-6,.5.5,0,0,1,.57.23,18.81,18.81,0,0,0,5.52,5.92c1.06.83,2.15,1.63,3.2,2.47a30.89,30.89,0,0,1,3.22,3.15,115.72,115.72,0,0,0,12.9,12.44c4.75,3.76,9.83,7.06,14.46,11l.52.45c2.22.73,4.36,1.69,6.52,2.58a24.66,24.66,0,0,1,9.47,6.76,29.7,29.7,0,0,1,3.15,4.49c1.5.6,3,1.2,4.51,1.77l.78.42.11-.21a.73.73,0,0,0,.43-.81A2.07,2.07,0,0,0,347.27,334.83Z"/><path class="cls-2" d="M306.91,95.23c.41-.47.79-1,1.17-1.43a3.88,3.88,0,0,0,.84-1.47,5.64,5.64,0,0,0,0-1.64,9.83,9.83,0,0,1,0-2.1,1.66,1.66,0,0,1,.63-1.3,1.18,1.18,0,0,1,1.22.14,3.15,3.15,0,0,1,.81,1,26.18,26.18,0,0,1,2.57,5.68,4.62,4.62,0,0,1,.29,1.6,4.67,4.67,0,0,1-.71,2,22.69,22.69,0,0,1-4.12,5.34,6.89,6.89,0,0,1-3.16,2c-.73.16-1,.7-1.77.83a10.5,10.5,0,0,0-2.42,1.34c-1.82.94-8.83,4.5-10.39,5.72q-3.28-6.3-6.41-12.68l.19-.09q2.25-4.84,4.48-9.7a3.59,3.59,0,0,1,1-1.46,3.49,3.49,0,0,1,2.28-.4l.28.12a3.57,3.57,0,0,1,.7-1.09c1-1,2.51-1,3.88-1l.41.18a4.44,4.44,0,0,1,1.16-1.72,5.79,5.79,0,0,1,3.6-1l.28.14a6.08,6.08,0,0,1,1.31-1.91,11.84,11.84,0,0,1,1.71-1.27c1.2-.8,2.37-1.67,3.52-2.55a4.35,4.35,0,0,1,1.18-.72,1.49,1.49,0,0,1,1.32.1,1.59,1.59,0,0,1,.18,2.23,28.49,28.49,0,0,1-3.32,3.94,9.07,9.07,0,0,0-2,2.32,7.94,7.94,0,0,0-.6,3.14l-.3,5.57Z"/><path class="cls-3" d="M314.16,94.1a26.18,26.18,0,0,0-2.57-5.68,3.15,3.15,0,0,0-.81-1,1.3,1.3,0,0,0-.45-.2,32.66,32.66,0,0,0,1,3.2,19.23,19.23,0,0,1,.8,3.67,5.9,5.9,0,0,1-.44,3.08A11.65,11.65,0,0,1,310,99.61c-1.34,1.56-2.64,3.47-4.58,4.14-4.15,1.45-7.94,4.1-11.95,5.41a.3.3,0,0,1-.34-.14,7.31,7.31,0,0,1-.35-.68.73.73,0,0,1-.1-.13c-2.36-3.76-4.5-6.42-5.63-11l-1.37,3-.19.09q3.12,6.38,6.41,12.68c1.56-1.22,8.57-4.78,10.39-5.72a10.5,10.5,0,0,1,2.42-1.34c.74-.13,1-.67,1.77-.83a6.89,6.89,0,0,0,3.16-2,22.69,22.69,0,0,0,4.12-5.34,4.67,4.67,0,0,0,.71-2A4.62,4.62,0,0,0,314.16,94.1Z"/><path class="cls-3" d="M294.93,96a11.13,11.13,0,0,0,1-2.18c.71-1.94,1.3-3.92,1.92-5.9.14-.44.28-.88.43-1.32h-1C296.63,89.79,295.07,92.77,294.93,96Z"/><path class="cls-3" d="M301.21,93.92c1-3.21,1.53-6.51,2.18-9.79-.31,0-.63,0-.95.05-.82,4.34-2.38,8.56-2.4,13A31.47,31.47,0,0,0,301.21,93.92Z"/><path class="cls-3" d="M292.68,88.57c-1.14,2.76-2.41,5.6-2.47,8.61a8.23,8.23,0,0,0,1-2.11c.3-.86.53-1.74.85-2.6.39-1.07.81-2.12,1.26-3.17l.28-.63-.19-.08C293.18,88.57,292.93,88.57,292.68,88.57Z"/><path class="cls-4" d="M291.88,112.92c.54,1,1.09,2.1,1.64,3.15l-.09.12a31.5,31.5,0,0,1-4.84,3l-.1,0a116.37,116.37,0,0,0-9.33-20.5l.23-.12,1.47-.66a15,15,0,0,1,2.74-1l.2-.09c.55,1.14,1.1,2.28,1.67,3.41Q288.59,106.62,291.88,112.92Z"/><path class="cls-5" d="M244.22,149.3a20.32,20.32,0,0,0-2.71-1.85,19.56,19.56,0,0,1,1.88-2.74v-.08a12.79,12.79,0,0,0,5.57-.94c.87-.36,4.18-1.36,4.7-2.15l.36-.16c.78.69,3.22-3.53,2.33-3.33.91-.88-4.66-10.05-2.28-14.9a12.1,12.1,0,0,1-4,.36c-1.32-.18-2.71-3.18-3.28-4.38-.49.21.73-.69,1.47-1.29,5-4.92,10.72-4.15,16.56-2.32,6.65,2.1,6.06,10.2,6.95,13.71,1.16,4.56-.15,10.49-1.83,14.89-1.55,4.06-3.33,6.35-1.49,10.28,1.39,3,4.94,5.58,7.23,7.93,2.73,2.82,4,5.39,4.21,9.31s-1,8-4.31,10c-2.46,1.5-6.34,3.2-8.59,1.39l1-.43a5.72,5.72,0,0,1-5.35.06l0,0a5.93,5.93,0,0,1-5.47,2.94,6.39,6.39,0,0,1-3.84-1.67,11.82,11.82,0,0,1-12-10.24l-.13,0c0-.33-.07-.65-.12-1l-.1-.06c1.07-1.62,2.12-3.27,3.15-4.93a27.47,27.47,0,0,0,3.6-7.7,10.3,10.3,0,0,0-1.12-8.22A12.48,12.48,0,0,0,244.22,149.3Z"/><path class="cls-6" d="M244.22,149.3a20.32,20.32,0,0,0-2.71-1.85,19.56,19.56,0,0,1,1.88-2.74v-.08a12.79,12.79,0,0,0,5.57-.94c.87-.36,4.18-1.36,4.7-2.15l.36-.16c.78.69,3.22-3.53,2.33-3.33.91-.88-4.66-10.05-2.28-14.9a12.1,12.1,0,0,1-4,.36c-1.32-.18-2.71-3.18-3.28-4.38-.49.21.73-.69,1.47-1.29,5-4.92,10.72-4.15,16.56-2.32,6.65,2.1,6.06,10.2,6.95,13.71,1.16,4.56-.15,10.49-1.83,14.89-1.55,4.06-3.33,6.35-1.49,10.28,1.39,3,4.94,5.58,7.23,7.93,2.73,2.82,4,5.39,4.21,9.31s-1,8-4.31,10c-2.46,1.5-6.34,3.2-8.59,1.39l1-.43a5.72,5.72,0,0,1-5.35.06l0,0a5.93,5.93,0,0,1-5.47,2.94,6.39,6.39,0,0,1-3.84-1.67,11.82,11.82,0,0,1-12-10.24l-.13,0c0-.33-.07-.65-.12-1l-.1-.06c1.07-1.62,2.12-3.27,3.15-4.93a27.47,27.47,0,0,0,3.6-7.7,10.3,10.3,0,0,0-1.12-8.22A12.48,12.48,0,0,0,244.22,149.3Z"/><path class="cls-7" d="M255.46,174a17,17,0,0,1-1,3l-.24.51a13.06,13.06,0,0,0,3.21-3.94,15.93,15.93,0,0,0,1.74-6,14,14,0,0,0-.59-6.16c-.74-2-1.83-3.78-2.65-5.71a10.57,10.57,0,0,1-1-4.34,6.38,6.38,0,0,0-1.76,5.46c.36,4,2.44,7.74,2.85,11.77a10,10,0,0,1-.09,2.45A28.44,28.44,0,0,1,255.46,174Z"/><path class="cls-7" d="M267.43,169.28a13.6,13.6,0,0,0-1.72-5c-.77-1.29-1.65-2.5-2.43-3.78a24.74,24.74,0,0,1-1.87-3.75,40,40,0,0,1-1.53-4.8,18.12,18.12,0,0,0,1,5.12c.71,2.07,1.67,4,2.54,6.06a35.37,35.37,0,0,1,2,6c.62,2.63,1.25,6.28-.48,8.61a5,5,0,0,0,2.27-3.15A12.65,12.65,0,0,0,267.43,169.28Z"/><path class="cls-7" d="M279.83,171c-.16-3.92-2.73-7.21-5.46-10-2.29-2.36-4.94-4.82-6.33-7.79-1.85-3.93-2.14-6.92-.59-11A24.25,24.25,0,0,0,268.67,128a14,14,0,0,0-3.28-6.19,22.79,22.79,0,0,1,1.69,7.55A26.41,26.41,0,0,1,266,138c-.92,3.15-2.4,6.11-3.11,9.32a14,14,0,0,0,1.15,9.62,32.81,32.81,0,0,0,5.36,6.62c1.84,1.95,3.75,4.1,4.63,6.68a8.86,8.86,0,0,1-.47,6.85,6.62,6.62,0,0,1-5.37,3.52c-1.8.15-4-.37-4.78-2.12a7.93,7.93,0,0,1-1.55,1.67,6.75,6.75,0,0,1-4.57,1.69,3.9,3.9,0,0,1-3.34-2.94,6.57,6.57,0,0,1-3.76.75c-2.32-.31-4.08-2.06-5.28-3.94a17.71,17.71,0,0,1-2.26-5.44c-.52.82-1.05,1.64-1.59,2.45l.1.06c.05.33.09.65.12,1l.13,0a11.82,11.82,0,0,0,12,10.24,6.39,6.39,0,0,0,3.84,1.67,5.93,5.93,0,0,0,5.47-2.94l0,0a5.72,5.72,0,0,0,5.35-.06l.05.09c2.86-.06,5.85-.36,8.31-1.86C279.74,178.79,280,174.88,279.83,171Z"/><path class="cls-8" d="M234.28,225.56l.52-.14c15.47,18.26,30.38,36.56,47.9,52.86a108.64,108.64,0,0,1-31.31,6.89,134,134,0,0,1-24.26-.44q-3.62-.37-7.22-1c-14.46,1.4-38-1.33-50.7-6.3-11.83-4.63-21.77-12.84-29.65-22.87a102.61,102.61,0,0,1-13.71-23.4l-.15-.54-1,.29-.1-.34c17.21-6.15,35.39-10.68,52.6-16.83q2.07-3.84,3.86-7.85a126.09,126.09,0,0,0,6.21-16.82l.59.16a40,40,0,0,0,15,6.5,116.22,116.22,0,0,0,15.81,2.14c4.7,1.86,8.21,6,10.42,10.59s3.31,9.72,4.54,14.72C233.87,224,234.06,224.78,234.28,225.56Z"/><g class="cls-9"><path class="cls-10" d="M177.65,220.67a72.57,72.57,0,0,0,10.6,17A35.68,35.68,0,0,0,202.5,247.9c-1.48-1.69-2.92-3.42-4.3-5.2A93.91,93.91,0,0,1,186,222.56a27.33,27.33,0,0,1-2.75-7.61.51.51,0,0,1,1-.28,65.3,65.3,0,0,0,2.81,7.68,43,43,0,0,0,3,4.74c5,6.93,11.56,12.71,18.31,17.88a46.27,46.27,0,0,0,12.56,6.64c3.35,1.21,6.79,2.18,10.2,3.2a119.45,119.45,0,0,1-24.53-22.67c-3.82-4.65-7.21-9.6-10.65-14.52-4.21-6-8.46-12-12.11-18.37-.87,2.25-1.79,4.48-2.79,6.68q-1.78,4-3.86,7.85l-2.21.78C175.83,216.61,176.71,218.65,177.65,220.67Z"/><path class="cls-10" d="M234.8,225.42l-.52.14c-.22-.78-.41-1.56-.61-2.34-1.23-5-2.31-10.09-4.54-14.72s-5.72-8.73-10.42-10.59a116.22,116.22,0,0,1-15.81-2.14,40,40,0,0,1-15-6.5l-.59-.16c-.12.42-.25.84-.38,1.27a46.44,46.44,0,0,0,6.57,4,45.91,45.91,0,0,0,9.8,3.48c2.82.67,5.81.24,8.63,1s4.24,3.54,5.79,5.81c1.8,2.64,4.56,4.3,6.72,6.62a24.47,24.47,0,0,1,5,8.46c1.49,4,2.72,8.14,4.4,12.09.62,1.44,1.32,2.84,1.92,4.3s1.09,2.67,1.71,4c1.07,2.29,2.39,5,4.58,6.47a7.42,7.42,0,0,0,.24-4.28c-.25-1.59-.65-3.15-.8-4.75a.51.51,0,0,1,.87-.36,23.51,23.51,0,0,1,4.86,8.42c1.06,2.86,1.92,5.79,3.08,8.62a25.23,25.23,0,0,0,5.07,8,48.38,48.38,0,0,0,8.36,6.95c3,2,10,5.75,9.44,5.7-7.18-.71-49.35-4.12-68.6-13.75-10.88-5.44-21.79-13.68-24.34-14.13a30.9,30.9,0,0,0,7,9.41,75,75,0,0,0,19.66,13.13c3.68,1.77,7.46,3.42,11.23,5s13.82,4.22,13.17,4.24h-1.15a170.49,170.49,0,0,1-19-1,93.55,93.55,0,0,1-17.37-3.6,106.78,106.78,0,0,1-14.76-6.13c-8.54-4.22-16.93-9.42-23.6-16.3.63,1.35,1.27,2.7,1.94,4,4.07,8.09,19.49,20.15,18.92,20.08l-.13,0h0a40.06,40.06,0,0,1-12.37-4c-7-3.48-13.32-8.23-19.37-13.13q-2.29-1.86-4.53-3.8c7.86,9.92,17.73,18,29.46,22.63,12.71,5,36.24,7.7,50.7,6.3q3.6.59,7.22,1a134,134,0,0,0,24.26.44,108.64,108.64,0,0,0,31.31-6.89C265.18,262,250.27,243.68,234.8,225.42Z"/></g><path class="cls-2" d="M255,121.31a13.89,13.89,0,0,1-3.23.17c-2.68.1-4.36-1.15-4.93-2.35a11.72,11.72,0,0,0-1.85,1.56,40.94,40.94,0,0,0-5.54,5.34c-1.84,1.94-2.6,4.53-3.25,7.13a6.75,6.75,0,0,0,.09,3.51,5.84,5.84,0,0,1-2.85,1.84l-.05-.19a56,56,0,0,0-5.53-10.55l-.35.23a12.27,12.27,0,0,0,2.61,19.86,17.55,17.55,0,0,0,3.52,1.32,14.22,14.22,0,0,0,4.14.57,47.21,47.21,0,0,0,6.45-.45,20.32,20.32,0,0,0-2.71-1.85,19.56,19.56,0,0,1,1.88-2.74v-.08a25.91,25.91,0,0,0,6-.79c1.9-.36,4.46-2.56,4.46-2.56.78.69,4.26,2.95,7.37,1.45,1.06-.52,1.08-3.94,1-4.1-.51-.76-1.43-2.08-3.22-1.61C255.25,130.13,252.53,128,255,121.31Z"/><path class="cls-3" d="M262.2,138.63c-.51-.76-1.43-2.08-3.22-1.61-3.73-6.89-6.45-9-4-15.71a13.89,13.89,0,0,1-3.23.17c-2.68.1-4.36-1.15-4.93-2.35a8.87,8.87,0,0,0-1.64,1.36,7.84,7.84,0,0,0,2.77,2.44,5.71,5.71,0,0,0,4.8.17c.26-.1.46.23.34.44a5.73,5.73,0,0,0-.29,3.83,15.55,15.55,0,0,0,2.56,5.9c.88,1.38,2,3.11,1.74,4.81a3.82,3.82,0,0,1,3.58.24,2.26,2.26,0,0,1,0,2.91,3.54,3.54,0,0,1-2,.94,7.34,7.34,0,0,1-5.21-2.13c-2.38,2.27-7.54,4-10.58,3.5-.24,1.69-2.08,2.44-3.64,2.83a17.48,17.48,0,0,0,1.71,1.38,11.91,11.91,0,0,1,1.81,1.74c.46-.05.94-.11,1.48-.19a20.32,20.32,0,0,0-2.71-1.85,19.56,19.56,0,0,1,1.88-2.74v-.08a25.91,25.91,0,0,0,6-.79c1.9-.36,4.46-2.56,4.46-2.56.78.69,4.26,2.95,7.37,1.45C262.28,142.21,262.3,138.79,262.2,138.63Z"/><path class="cls-3" d="M238.14,139.49a8.49,8.49,0,0,1-2.2-2.46,5.92,5.92,0,0,1-2.51,1.48l-.05-.19c-1.22.48-5.34,1.55-7.78-.62a4.64,4.64,0,0,0,2,1.76c2.28,1.13,9.83,1.55,11.06,1.62A13.19,13.19,0,0,0,241,141,9.48,9.48,0,0,1,238.14,139.49Z"/><path class="cls-2" d="M237.16,178.29c1.33-1.83,2.62-3.7,3.87-5.59l.1.06c.05.33.09.65.12,1a32.54,32.54,0,0,1,.25,5.13l-.08.13a18.05,18.05,0,0,1-14.69,12.06,8.26,8.26,0,0,1-2.35-.07,1.93,1.93,0,0,1-.63-.24,28.32,28.32,0,0,0,8.44-7.44,38.38,38.38,0,0,0,2.33-3.05c.36-.55.61-1.18,1-1.72.17-.26.16-.32.24-.36l.27,0c.32,0,.72.13,1.06.09Z"/><path class="cls-4" d="M235.73,178.05l0,.13c-.08,0-.07.1-.24.36-.38.54-.63,1.17-1,1.72a38.38,38.38,0,0,1-2.33,3.05,28.32,28.32,0,0,1-8.44,7.44,5.8,5.8,0,0,1-2.69-.48,31.1,31.1,0,0,0,12-12.68C234,177.73,234.85,177.89,235.73,178.05Z"/><path class="cls-11" d="M186.31,153.72a85.87,85.87,0,0,0,13.07-1.22l.21,0,6.53-.94c3.26-3.6,6.07-13.06,6.07-13.06S210.25,129,207,125.41a11.5,11.5,0,0,0,.26-1.5l-.47-.11a8.78,8.78,0,0,0,2.06-1.5c3.68-3.16,4.08-5.67,4.67-10,0-.25.06-.49.09-.74l.44,0a88.54,88.54,0,0,1,13.82,16.2l-.35.23a12.27,12.27,0,0,0,2.61,19.86,17.55,17.55,0,0,0,3.52,1.32,14.22,14.22,0,0,0,4.14.57,47.21,47.21,0,0,0,6.45-.45,12.48,12.48,0,0,1,2.44,2.55,10.3,10.3,0,0,1,1.12,8.22,27.47,27.47,0,0,1-3.6,7.7l-1.81-.52c-10.59,3.15-21.77,3.53-32.84,3.72l-2.26,0-13.63.21c-1.9,0-3.81.06-5.72,0a45.18,45.18,0,0,1-9.18-1.4,11.18,11.18,0,0,1-8-5.69l-.42-.65a145,145,0,0,1-10-18.51c-1.63-3.59-3.11-7.27-4.45-11l.2-.08a95,95,0,0,1,8.59-10.2l.57.17s0,0,0,0q3.35,5.54,7,10.89a231.51,231.51,0,0,0,14.13,18.71Z"/><path class="cls-11" d="M233.82,176.12c-8.23-.56-16.7-2-24.29-5.15,11.07-.19,22.25-.57,32.84-3.72l1.81.52c-1,1.66-2.08,3.31-3.15,4.93-1.25,1.89-2.54,3.76-3.87,5.59l-.08-.06c-.34,0-.74-.14-1.06-.09l-.27,0,0-.13c-.88-.16-1.76-.32-2.64-.46C233.35,177.11,233.58,176.62,233.82,176.12Z"/><path class="cls-11" d="M223.75,190.75a1.93,1.93,0,0,0,.63.24c-.85,1.06-1.75,2.24-2.62,3.46l-.09-.06c-5.58-1.68-11.43-2.13-17.16-3.18s-11.53-2.81-15.92-6.62l-.09,0c.06-.21.11-.43.16-.64l.19-.64a249.48,249.48,0,0,0,32.21,7A5.8,5.8,0,0,0,223.75,190.75Z"/><g class="cls-12"><path class="cls-11" d="M227.38,152.22s-17.26-2.86-19.59-3.06a31.24,31.24,0,0,1-1.93,2.54C207.4,151.84,227.33,152.25,227.38,152.22Z"/><path class="cls-11" d="M189,156.61c9.6-4.07,34.5-2.56,37.84-4.37-.15,0-19.42-.56-20.78-.71l-6.48.94-.21,0A90.56,90.56,0,0,1,187,153.72C187.52,154.47,188.14,156.28,189,156.61Z"/><path class="cls-11" d="M241.39,167.32a7.4,7.4,0,0,1-1,.29,22.12,22.12,0,0,1-4.6.16c-1.78-.06-3.54,0-5.32,0-2,0-4-.06-6-.07s-4,.07-6.07.13c-4.11.13-8.22.28-12.34.38-3.82.08-7.64,0-11.46.27a69.75,69.75,0,0,1-11.1.18c-3-.28-5.88-.92-8.19-2.88a21.68,21.68,0,0,1-4.73-6.38c-1.28-2.4-2.43-4.86-3.68-7.28-3.43-6.63-6-13.67-9.29-20.35-.53.68-1.06,1.37-1.57,2.07l-.2.08c1.34,3.71,2.82,7.39,4.45,11a145,145,0,0,0,10,18.51l.42.65a11.18,11.18,0,0,0,8,5.69,45.18,45.18,0,0,0,9.18,1.4c1.91.09,3.82.06,5.72,0l13.63-.21,2.26,0c10.69-.18,21.47-.55,31.73-3.41C241.31,167.48,241.35,167.4,241.39,167.32Z"/><path class="cls-11" d="M246.66,151.85a12.48,12.48,0,0,0-2.44-2.55,33.84,33.84,0,0,1-3.42.35,16,16,0,0,1,1.24,1.23,11.67,11.67,0,0,1,2.35,3.91,11.17,11.17,0,0,1,.45,4.38,20.23,20.23,0,0,1-.71,4.37,8.19,8.19,0,0,1-1.82,3.52.33.33,0,0,1-.17.08l-.09.2.32-.09,1.81.52a27.47,27.47,0,0,0,3.6-7.7A10.3,10.3,0,0,0,246.66,151.85Z"/><path class="cls-11" d="M242.37,167.25l-.32.09a13.63,13.63,0,0,1-1.47,2.38c-.61.79-1.3,1.49-2,2.23-1.71,1.88-3.53,3.65-5.38,5.37l-.14.27c.88.14,1.76.3,2.64.46l0,.13.27,0c.32,0,.72.13,1.06.09l.08.06c1.33-1.83,2.62-3.7,3.87-5.59,1.07-1.62,2.12-3.27,3.15-4.93Z"/><path class="cls-11" d="M223.75,190.75a5.26,5.26,0,0,1-2.38-.38,16.91,16.91,0,0,0-1.42,1.81c-.35.5-.72,1-1.1,1.47,1,.22,1.89.46,2.82.74l.09.06c.87-1.22,1.77-2.4,2.62-3.46A1.93,1.93,0,0,1,223.75,190.75Z"/></g><path class="cls-4" d="M221.67,194.39l.09.06c-.79,1.12-1.54,2.26-2.2,3.33l-1.07,0,.22.09a116.22,116.22,0,0,1-15.81-2.14,40,40,0,0,1-15-6.5l-.59-.16c.44-1.51.85-3,1.23-4.55l.09,0c4.39,3.81,10.2,5.57,15.92,6.62S216.09,192.71,221.67,194.39Z"/><path class="cls-13" d="M214.56,92.89a9.18,9.18,0,0,1-1.47,5.45c-.12.2-.25.38-.38.56-2.26,3.15-6,4.61-9.79,4.95-3.22.29-6.47-.16-9.72-.07-2.13,0-2.71.59-2.8,2.63-.08,1.77-.1,3.55,0,5.32h-.23a9,9,0,0,0-1.33-3.85,3.18,3.18,0,0,0-2.24-1.66,2.89,2.89,0,0,0-2.16,1,5.37,5.37,0,0,0-1.4,3.19h-.07a29.26,29.26,0,0,1-2-6.64,21,21,0,0,1,.17-9,19.62,19.62,0,0,1,8.07-11.47c4.72-3.1,7.75-2.63,11.42-2.52a14.66,14.66,0,0,1,12.72,8.59A10,10,0,0,1,214.56,92.89Z"/><path class="cls-14" d="M181.18,105c2.33-2.7,4.83-3.14,8.08-2.44.18-.19.07-.15.28-.27a5.17,5.17,0,0,0-2.32-1.4,4.82,4.82,0,0,0-4,.34c-1.59.87-1.64,1.86-2.27,2.62,0,.3-.06-.3,0,0S181.1,104.58,181.18,105Z"/><path class="cls-14" d="M192.09,98.11A9.85,9.85,0,0,0,188.34,93a6.73,6.73,0,0,0-2.78-1.14,8.25,8.25,0,0,0-3.2.25.29.29,0,0,1-.27-.08.3.3,0,0,1,0,.1l.15,0,.08,0a5.62,5.62,0,0,1,3,.71,14,14,0,0,1,4.77,4.45,13.59,13.59,0,0,1,2.08,4A4.84,4.84,0,0,0,192.09,98.11Z"/><path class="cls-14" d="M194.3,99.85a8.49,8.49,0,0,0,1.62-2.77,10.32,10.32,0,0,0,.36-4.78,13.53,13.53,0,0,0-1.42-4.6A6.84,6.84,0,0,0,192.23,85a10.15,10.15,0,0,0-3.36-1.11,20.71,20.71,0,0,1,2.84,3.43A16.52,16.52,0,0,1,194.3,99.85Z"/><path class="cls-14" d="M205,81.7c-.22-.09-.45-.15-.67-.22a15,15,0,0,1-.12,5,35.74,35.74,0,0,1-3.4,9.09c-1.07,2.22-5.43,5-5.37,5,2.16-.39,4.53-1.12,5.77-2.81A21.87,21.87,0,0,0,205,81.7Z"/><path class="cls-14" d="M214.56,92.89a10,10,0,0,0-1.23-3.46c-.11-.25-.23-.49-.35-.73a24.89,24.89,0,0,1-1.45,5.23,14.74,14.74,0,0,1-4.88,6.41,14.47,14.47,0,0,1-9.74,2.53,24,24,0,0,1-2.68-.36c-.26-.05-1.44-.15-1.38-.27-.18,0-3.21-.18-4,1s-.22,2.53,0,3.66c.11.61.25,1.22.37,1.83a9,9,0,0,1,.88,3h.23c-.06-1.77,0-3.55,0-5.32.09-2,.67-2.58,2.8-2.63,3.25-.09,6.5.36,9.72.07,3.83-.34,7.53-1.8,9.79-4.95.13-.18.26-.36.38-.56A9.18,9.18,0,0,0,214.56,92.89Z"/><path class="cls-2" d="M190.36,111.73c-.06-1.77,0-3.55,0-5.32.09-2,.67-2.58,2.8-2.63,3.25-.09,6.5.36,9.72.07,3.83-.34,7.53-1.8,9.79-4.95l.25.17c.32,2.52.65,5.06.75,7.6a32.75,32.75,0,0,1-.12,4.85c0,.25-.05.49-.09.74-.59,4.37-1,6.88-4.67,10a8.78,8.78,0,0,1-2.06,1.5,9.6,9.6,0,0,1-4.05,1.19,11.32,11.32,0,0,1-1.93,0,8.72,8.72,0,0,1-.44,3l-.17-.06c-2.93.32-5.78-1.25-7.92-3.28-2.36-2.25-4.18-5.45-3.65-8.67l-1-.36a4.41,4.41,0,0,1-2.68-.87,4.67,4.67,0,0,1-1.66-2.16,3,3,0,0,1-.12-.4,4.88,4.88,0,0,1-.14-1.66,5.37,5.37,0,0,1,1.4-3.19,2.89,2.89,0,0,1,2.16-1,3.18,3.18,0,0,1,2.24,1.66,9,9,0,0,1,1.33,3.85Z"/><path class="cls-3" d="M197.2,127.57a7.69,7.69,0,0,0,3,.28l.17.06a8.86,8.86,0,0,0,.44-2.79L200,125a15.54,15.54,0,0,1-2.94-.62c-1.83-.66-3.36-2.21-4.73-3.53-.63-.6-1.22-1.23-1.79-1.89C191,119.88,191.27,123.8,197.2,127.57Z"/><path class="cls-3" d="M191.91,107a4.52,4.52,0,0,1,2.75-.89c1.54,0,3.09.12,4.63.19A17.27,17.27,0,0,0,207.6,105a20,20,0,0,0,5.59-4c-.07-.63-.15-1.26-.23-1.89l-.25-.17c-2.26,3.15-6,4.61-9.79,4.95-3.22.29-6.47-.16-9.72-.07-2.13,0-2.71.59-2.8,2.63-.05,1.13-.07,2.26-.07,3.39A4.94,4.94,0,0,1,191.91,107Z"/><path class="cls-3" d="M185,113.52a4,4,0,0,1-1.17-3.53,2.5,2.5,0,0,1,2.36-2.13,4.49,4.49,0,0,1,2.76,1.92,17,17,0,0,1,1.07,1.49,8.8,8.8,0,0,0-1.25-3.39,3.18,3.18,0,0,0-2.24-1.66,2.89,2.89,0,0,0-2.16,1,5.37,5.37,0,0,0-1.4,3.19,4.88,4.88,0,0,0,.14,1.66,3,3,0,0,0,.12.4,4.67,4.67,0,0,0,1.66,2.16,4.35,4.35,0,0,0,2.42.85A13.39,13.39,0,0,1,185,113.52Z"/><path class="cls-15" d="M207,125.41a18.43,18.43,0,0,1-4.36,8,12.63,12.63,0,0,0-2.5-4.87l0,0q.12-.33.21-.63a8.72,8.72,0,0,0,.44-3,11.32,11.32,0,0,0,1.93,0,9.6,9.6,0,0,0,4.05-1.19l.47.11A11.5,11.5,0,0,1,207,125.41Z"/><path class="cls-16" d="M202,138.25c.45,1.68,2.5,9.21,3.86,13l-6.52.95,0-.23c-.26-1.64-.55-3.27-.87-4.9l.22,0c.21-1.65.18-6.39.38-8l.43-.16,2.45-.93Z"/><path class="cls-16" d="M202.37,133.19a15.66,15.66,0,0,1-.37,5.06l-.09-.33-2.45.93L199,139l-1.72-3.2-.23-.09a77.19,77.19,0,0,0,2.64-7.53.75.75,0,0,1,.14.12A12.62,12.62,0,0,1,202.37,133.19Z"/><path class="cls-15" d="M200,128.44a72.24,72.24,0,0,1-2.64,7.53,1.15,1.15,0,0,1-.06.17l-.34-.14c-.57-.27-1.13-.57-1.67-.89A22.38,22.38,0,0,1,184.56,115l.36-.3a4.41,4.41,0,0,0,2.68.87l1,.36c-.53,3.22,1.29,6.42,3.65,8.67,2.14,2,5,3.6,7.92,3.28l.17.06q-.09.3-.21.63l0,0Z"/><path class="cls-15" d="M197.56,136.06c.57,1.07,1.15,2.14,1.73,3.21-.21,1.64-.18,6.38-.38,8l-.22,0c-.49-2.53-1.05-5.06-1.67-7.57a14.44,14.44,0,0,0-1.77-4.64v0c.54.32,1.1.62,1.67.89l.34.14a1.15,1.15,0,0,0,.06-.17Z"/><path class="cls-17" d="M288.49,119.19l0,.11c-1.28.65-14.71,6-17.19,8.09,0,0-.82-6.34-5.4-9.52a15.52,15.52,0,0,0-11.53-2.35c-3.86.94-6.1,2.32-9.42,5.17,0,0-3.84,3.46-5.54,5.34-1.31,1.44-2.6,4.53-3.25,7.13a6.75,6.75,0,0,0,.09,3.51,5.84,5.84,0,0,1-2.85,1.84l-.05-.19a56,56,0,0,0-5.53-10.55A88.54,88.54,0,0,0,214,111.57c4.19,1.39,8.52,2.8,12.93,2.53a34.92,34.92,0,0,0,9.6-2.43c13.69-4.87,27.8-10.07,41.47-15,.38.65.76,1.3,1.13,2A116.37,116.37,0,0,1,288.49,119.19Z"/><path class="cls-17" d="M233.09,177.59a31.1,31.1,0,0,1-12,12.68,249.48,249.48,0,0,1-32.21-7c-1-.31-2-.62-3-.94a15.83,15.83,0,0,1-4.17-1.81,14.62,14.62,0,0,1-3.21-3.31,66.21,66.21,0,0,1-7.76-13.09l.06,0a11.18,11.18,0,0,0,8,5.69,45.18,45.18,0,0,0,9.18,1.4c1.91.09,3.82.06,5.72,0l13.63-.21,2.26,0c7.59,3.19,16.06,4.59,24.29,5.15C233.58,176.62,233.35,177.11,233.09,177.59Z"/><path class="cls-15" d="M207,125.41c3.27,3.61,5.21,13.06,5.21,13.06s-2.81,9.46-6.07,13.06c-1.36-3.82-3.42-11.35-3.87-13a15.45,15.45,0,0,0,.37-5.07A18.43,18.43,0,0,0,207,125.41Z"/><path class="cls-17" d="M207,125.41a15.37,15.37,0,0,1-.69,2.19,57.85,57.85,0,0,1,.35,6.17,168.65,168.65,0,0,1-.74,17.12c.07.22.15.44.22.64,3.26-3.6,6.07-13.06,6.07-13.06S210.25,129,207,125.41Z"/><path class="cls-15" d="M205.41,149.42c.26-3.1.45-6.21.55-9.32q.12-3.54.06-7.06c0-1.44-.09-2.88-.22-4.31a18.91,18.91,0,0,1-3.18,4.71,15.45,15.45,0,0,1-.37,5.07C202.63,139.91,204.13,145.43,205.41,149.42Z"/><path class="cls-17" d="M199.56,152.25l0,.22-.21,0a85.87,85.87,0,0,1-13.07,1.22v-.23a231.51,231.51,0,0,1-14.13-18.71,27.34,27.34,0,0,1,.95-8.57l3.56,5.57c.26.41.74.87,1.14.59a.91.91,0,0,0,.28-.53,13,13,0,0,0-.66-7.26,7.29,7.29,0,0,1-.67-3.32,5.8,5.8,0,0,1,.77-1.94,29.78,29.78,0,0,1,2.14-3.28,31.41,31.41,0,0,1,3.45-3.93,3,3,0,0,0,.12.4,4.67,4.67,0,0,0,1.66,2.16l-.36.3a22.38,22.38,0,0,0,10.7,20.14v0a14.44,14.44,0,0,1,1.77,4.64c.62,2.51,1.18,5,1.67,7.57C199,149,199.29,150.61,199.56,152.25Z"/><path class="cls-17" d="M188.85,183.28l-.19.64c0,.21-.1.43-.16.64-.38,1.53-.79,3-1.23,4.55a126.09,126.09,0,0,1-6.21,16.82l-38.15-18.72-.69-.32c6.52-14.19,12.35-27.3,18.05-42q2.8,6.21,6.17,12.12,1.84,3.24,3.86,6.39l.42.65-.06,0a66.21,66.21,0,0,0,7.76,13.09,14.62,14.62,0,0,0,3.21,3.31,15.83,15.83,0,0,0,4.17,1.81C186.8,182.66,187.82,183,188.85,183.28Z"/><g class="cls-18"><path class="cls-17" d="M236.17,133.26c-1.4.59-2.81,1.17-4.23,1.71.53,1.13,1,2.24,1.44,3.35l.05.19a5.84,5.84,0,0,0,2.85-1.84A6.8,6.8,0,0,1,236.17,133.26Z"/><path class="cls-17" d="M286.22,113.08c-5.4,1.93-11.92,4.38-17.27,6.46,1.08,1.6,3.11,3.85,3.61,6.43,5.66-2.56,15-6.19,16-6.67l0-.11C287.84,117.18,287.06,115.13,286.22,113.08Z"/><path class="cls-17" d="M176.1,173a15.88,15.88,0,0,0,6.15,1.94c1.85.23,3.71.43,5.56.6s3.74.25,5.61.26a89.15,89.15,0,0,0,11.43-.72c3.71-.45,7.4-1.09,11.06-1.86a55.92,55.92,0,0,1-6.38-2.22l-2.26,0-13.63.21c-1.9,0-3.81.06-5.72,0a45.18,45.18,0,0,1-9.18-1.4,11.18,11.18,0,0,1-8-5.69l-.06,0a66.14,66.14,0,0,0,4.34,8.14C175.36,172.51,175.72,172.75,176.1,173Z"/><path class="cls-17" d="M187.81,145c1,2.86,2.05,5.72,3.21,8.54,1-.09,2.1-.19,3.15-.32-3-5.19-5.4-10.72-8.1-16.08.13.94.25,1.88.47,2.8a.25.25,0,0,1,.24.28,3,3,0,0,0,0,.52h0a.29.29,0,0,1,0,.16A13.83,13.83,0,0,0,187.81,145Z"/><path class="cls-17" d="M174.47,132.56c0-.24.35-.27.5-.14a13,13,0,0,0,2.16,1.84,1.48,1.48,0,0,0,1,.24,1.91,1.91,0,0,0,1.11-1c1.06-1.66.75-3.7.42-5.53a22.56,22.56,0,0,1-.55-5.43c.21-3.62,2.16-6.6,4.26-9.44a.29.29,0,0,1,.12-.1,5.12,5.12,0,0,1-.25-.53,3,3,0,0,1-.12-.4,31.41,31.41,0,0,0-3.45,3.93,29.78,29.78,0,0,0-2.14,3.28,5.8,5.8,0,0,0-.77,1.94,7.29,7.29,0,0,0,.67,3.32,13,13,0,0,1,.66,7.26.91.91,0,0,1-.28.53c-.4.28-.88-.18-1.14-.59l-3.56-5.57a27.34,27.34,0,0,0-.95,8.57c.73,1.08,1.49,2.15,2.24,3.22A21.08,21.08,0,0,1,174.47,132.56Z"/><path class="cls-17" d="M185.8,182.34a15.83,15.83,0,0,1-4.17-1.81,14.62,14.62,0,0,1-3.21-3.31,66.21,66.21,0,0,1-7.76-13.09l.06,0-.42-.65a145,145,0,0,1-10-18.51c-.37.94-.73,1.87-1.1,2.8,1.22,2.72,2.36,5.48,3.48,8.24,3,7.33,5.79,14.74,9.63,21.66a18,18,0,0,0,5,6.18,25.15,25.15,0,0,0,7.22,3.1.3.3,0,0,1,.21.37,54.31,54.31,0,0,1-1.51,5.49,114.44,114.44,0,0,1-4.76,11.85l2.66,1.31a126.09,126.09,0,0,0,6.21-16.82c.44-1.51.85-3,1.23-4.55.06-.21.11-.43.16-.64l.19-.64C187.82,183,186.8,182.66,185.8,182.34Z"/></g><path class="cls-11" d="M183,110.45a4.88,4.88,0,0,0,.14,1.66,31.41,31.41,0,0,0-3.45,3.93l-.11-.08a13.94,13.94,0,0,0-6.93-4.5,46.37,46.37,0,0,1,8-7.6l.25,0a29.26,29.26,0,0,0,2,6.64Z"/><path class="cls-2" d="M179.58,116l.11.08a29.78,29.78,0,0,0-2.14,3.28,5.8,5.8,0,0,0-.77,1.94,7.29,7.29,0,0,0,.67,3.32,13,13,0,0,1,.66,7.26.91.91,0,0,1-.28.53c-.4.28-.88-.18-1.14-.59l-3.56-5.57a27.34,27.34,0,0,0-.95,8.57q-3.65-5.35-7-10.89a46,46,0,0,1,4.91-9.08c.79-1.16,1.64-2.27,2.54-3.35A13.94,13.94,0,0,1,179.58,116Z"/><path class="cls-3" d="M176.78,121.26a5.8,5.8,0,0,1,.77-1.94,29.78,29.78,0,0,1,2.14-3.28l-.11-.08a13.94,13.94,0,0,0-6.93-4.5c-.29.35-.56.7-.84,1.05,2,.7,3.45,2.38,5.23,3.47a.32.32,0,0,1,.14.34c-.44,1.47-1.52,3-1.64,4.5a7.17,7.17,0,0,0,.1,2.12c.29,1.35.85,2.61,1.16,4a19.63,19.63,0,0,1,.49,4.52c0,.2-.07.89.16,1s.6-.35.66-.58a13,13,0,0,0-.66-7.26A7.29,7.29,0,0,1,176.78,121.26Z"/><path class="cls-2" d="M165.43,115.84a14.77,14.77,0,0,0,4.68-1,46,46,0,0,0-4.91,9.08s0,0,0,0l-.57-.17a95,95,0,0,0-8.59,10.2c.15-3.33.23-7.67.38-11a80.17,80.17,0,0,1,7.16-6.35,2.93,2.93,0,0,1,.69-.45A3.63,3.63,0,0,1,165.43,115.84Z"/><path class="cls-3" d="M167,116.62c-.63,1.11-1.14,2.26-1.73,3.39a14.57,14.57,0,0,0-1.7,3.45.3.3,0,0,1-.21.21,5,5,0,0,0-2.3,1.72c-.67.75-1.33,1.52-2,2.28-1,1.23-1.94,2.56-3,3.79,0,.84-.05,1.65-.09,2.41a95,95,0,0,1,8.59-10.2l.57.17s0,0,0,0a46,46,0,0,1,4.91-9.08,15.48,15.48,0,0,1-2.48.74C167.41,115.91,167.19,116.26,167,116.62Z"/><path class="cls-19" d="M362.1,343v0c-.09,1.05-.54,1-1.09.94a3.47,3.47,0,0,1-1.35-.53l-12.5-6.75.11-.21a.73.73,0,0,0,.43-.81,2.07,2.07,0,0,0-.43-.88,74.86,74.86,0,0,0-6.45-7.88,19.89,19.89,0,0,0-6.05-4.8c-1.68-.75-3.52-1.08-5.26-1.69a14,14,0,0,1-7-5.32l.16-.11,18.14-1.35a.9.9,0,0,1,.43,0,1,1,0,0,1,.45.36l5.16,6.1c-1,.25-2,.51-3.05.79a2.06,2.06,0,0,0-1.22.65,1.45,1.45,0,0,0,.44,1.86,4.71,4.71,0,0,0,2,.74,23.53,23.53,0,0,1,11.92,6.55A18.41,18.41,0,0,1,362.1,343Z"/><path class="cls-19" d="M149.92,296.28s.56,10.31.91,13.7c-1.7,0-3.12-1-4.7-1.14s-3.53.32-3.94,1.86a4.13,4.13,0,0,0,.07,1.78q1.16,6.15,2.3,12.29c.38,2,.71,4.28-.48,6a7,7,0,0,1-2.46,1.93,36.5,36.5,0,0,1-10.33,3.72c.23-2,2.18-3.31,3.42-4.92a8.1,8.1,0,0,0,1.49-6.57c3.48-7.52,3.72-15.34.09-22.77,1.23-.49,2-.87,3-1.32Z"/><g class="cls-12"><path class="cls-19" d="M324.8,317.71c1.37,0,2.75-.08,4.12-.17,1.88-.13,3.75-.3,5.62-.46l2.72-.2a8.56,8.56,0,0,1,1.6,0c1,.13,1.59,1,2.18,1.71s.91,1.26,1.35,1.9c.18.28.37.56.58.83a3.4,3.4,0,0,1,.84-.32c1-.28,2-.54,3.05-.79l-5.16-6.1a1,1,0,0,0-.45-.36.9.9,0,0,0-.43,0L322.68,315l-.16.11A12.75,12.75,0,0,0,324.8,317.71Z"/><path class="cls-19" d="M356.9,330.76A23.53,23.53,0,0,0,345,324.21a6.4,6.4,0,0,1-1.52-.47,1.09,1.09,0,0,0,.08.15.61.61,0,0,0,.07.1l0,0,0,.06.2.17a17.3,17.3,0,0,1,5.68,2.95,21.61,21.61,0,0,1,6.71,9.95,32,32,0,0,1,1.31,5.21l2.09,1.13A3.47,3.47,0,0,0,361,344c.55,0,1,.11,1.09-.94v0A18.41,18.41,0,0,0,356.9,330.76Z"/><path class="cls-19" d="M146.5,308.9c1.43.28,2.76,1.08,4.33,1.08-.35-3.4-.91-13.7-.91-13.7l-4.2,1.79A78.44,78.44,0,0,1,146.5,308.9Z"/><path class="cls-19" d="M142.56,314.09a80.94,80.94,0,0,1-.15,8.53,18.55,18.55,0,0,1-.71,4.19,11.12,11.12,0,0,1-1.92,3.55,15.17,15.17,0,0,1-2.92,2.62c-1.15.85-2.32,1.67-3.49,2.48l-1,.69a36.65,36.65,0,0,0,9.28-3.5,7,7,0,0,0,2.46-1.93c1.19-1.67.86-3.94.48-6Q143.55,319.43,142.56,314.09Z"/></g><path class="cls-2" d="M125.63,258.35l0,.12a202.76,202.76,0,0,0,4.68,35.12,18.35,18.35,0,0,0,1.76,5.2,6.56,6.56,0,0,0,4.2,3.32c3.63,7.43,3.39,15.25-.09,22.77a43.8,43.8,0,0,0-6.85-9.09,80.2,80.2,0,0,1-6.07-6,37.42,37.42,0,0,1-5.31-9.59c-1.52-3.66-2.89-7.4-4.08-11.19l0-.05c-4.39-9.94-6.39-16.13-10.78-26.07a37.19,37.19,0,0,1-3.27-9.71,14,14,0,0,1,2.52-10.45c2.44-3.38,6.29-5.88,10.45-7.59A123.06,123.06,0,0,1,124.7,231l1-.29.15.54a102.61,102.61,0,0,0,13.71,23.4h0A67.34,67.34,0,0,1,125.63,258.35Z"/><path class="cls-3" d="M139.56,254.6a102.61,102.61,0,0,1-13.71-23.4l-.15-.54-1,.29c-.91.27-1.81.55-2.71.84.42.52,4.68,9,6.44,12.78,1.47,3.12,5.24,9.83,4.72,10.13-3.83,2.24-12.15,3.33-15.33,3.54,1.25,2.16,4,1.83,6.42,1.51.34,0,0,2.07-.08,2.42-.88,4.33-.12,8.8.26,13.13.86,9.81.38,21.45,7.21,29.39a28.37,28.37,0,0,1,2.83,3.37c1.12,1.77.92,3.39.59,5.35-.41,2.45-.73,4.88-1.38,7.28a1.05,1.05,0,0,1,0,.19c.91,1.28,1.76,2.61,2.58,4,3.48-7.52,3.72-15.34.09-22.77a6.56,6.56,0,0,1-4.2-3.32,18.35,18.35,0,0,1-1.76-5.2,202.76,202.76,0,0,1-4.68-35.12l0-.12A67.6,67.6,0,0,0,139.56,254.6Z"/><path class="cls-20" d="M262.14,294.27a86.49,86.49,0,0,1-10.75-9.1,134,134,0,0,1-24.26-.44l0,.44c3.93,9.68,7.93,18.71,12.24,28.22h29.74C266.45,306.72,264.4,301.06,262.14,294.27Z"/><path class="cls-20" d="M142.22,186.89c-.29.66-.6,1.32-.9,2l.39.26A409.19,409.19,0,0,1,116,222.67c-1.32,1.55-7,9.41-14.26,19.69C85.67,265.1,61.55,299.68,58.4,304.19l.34.22c-.06.1-.12.2-.2.31l.1.06c5.75,2.37,13.19,5.7,20.13,8.66,3.63,1.54,7.1,3,10.13,4.12l25-28.57,0-.05c-4.39-9.94-6.39-16.13-10.78-26.07a37.19,37.19,0,0,1-3.27-9.71,14,14,0,0,1,2.52-10.45c2.44-3.38,6.29-5.88,10.45-7.59A120.4,120.4,0,0,1,124.7,231s35.29-11,52.5-17.17q2.07-3.84,3.86-7.85l-38.15-18.72Z"/><g class="cls-12"><path class="cls-20" d="M253.58,291.05c2.87,7.43,5.58,14.9,8.39,22.34h7.1c-2.62-6.67-4.67-12.33-6.93-19.12a86.49,86.49,0,0,1-10.75-9.1h-.12Q252.46,288.11,253.58,291.05Z"/><path class="cls-20" d="M102.74,283.35c-6.78,8.43-23.83,28.07-25,29.63,3.51,1.5,8.24,3.47,11.19,4.58l25-28.57,0-.05c-2.16-4.89-3.74-8.87-5.31-12.84Q105.66,279.71,102.74,283.35Z"/><path class="cls-20" d="M142.91,187.21l-.69-.32c-.29.66-.6,1.32-.9,2l.39.26q-1.34,2-2.69,3.87c1.08.54,2.16,1.08,3.23,1.65,4.42,2.32,8.75,4.82,13.06,7.33s8.5,5,12.83,7.29l.15-.2c.24-.31.76,0,.53.31-.74,1-1.48,1.93-2.24,2.89-2,2.48-4.07,4.88-6.2,7.24,6.22-2.06,12.18-4.07,16.82-5.73q2.07-3.84,3.86-7.85Z"/></g><path class="cls-2" d="M78.77,313.44l-6.89,5.46-21.94-2.17-.21,0c2.5-3.82,6.32-8.08,8.81-12l.1.06C64.39,307.15,71.83,310.48,78.77,313.44Z"/><path class="cls-3" d="M66.14,318.34l5.74.56,6.89-5.46-4.88-2.1C71.31,313.67,68.75,316,66.14,318.34Z"/><path class="cls-21" d="M258.28,322.64h-5.69a27.9,27.9,0,0,1,1.24,4.28V327H243.45c-1.87-3.56-3.57-9.68-2.86-13.64H265.3a163.23,163.23,0,0,0,21.61,9.13l0,.06a38,38,0,0,1-.1,4.13H263.48l-.15-.16C261.69,325.2,260,323.89,258.28,322.64Z"/><path class="cls-21" d="M55.53,326.79q-2.6,1.88-5,3.91l-.17.16H27a33.5,33.5,0,0,1-.09-4.13l0-.06a190,190,0,0,0,23-9.8l0-.14,21.94,2.17.26.59a18.36,18.36,0,0,1-1.79,11.69H60v-.11a27.54,27.54,0,0,1,1.23-4.28H55.53Z"/><g class="cls-12"><path class="cls-21" d="M242.16,324.08a25.78,25.78,0,0,0,1.29,2.95h10.38v-.11a27.58,27.58,0,0,0-.75-2.84Z"/><path class="cls-21" d="M287,325.05c0-.3,0-2.17,0-2.47l0-.06a163.23,163.23,0,0,1-21.61-9.13h-3.64c.4.3.81.6,1.22.88,5.05,3.5,10.64,6.12,16.17,8.74.07,0,1.29.52,2.67,1.07H260.19c1.06.8,2.11,1.62,3.14,2.47l.15.16h23.38c0-.55.07-1.1.08-1.66Z"/><path class="cls-21" d="M72.14,319.49l-.26-.59-2.17-.21c0,1.61.2,3.21.16,4.82a8.83,8.83,0,0,1-1.19,4.83.28.28,0,0,1-.19.12.3.3,0,0,1-.27.42h-7.7q-.32,1.08-.54,2.19v.11H70.35A18.36,18.36,0,0,0,72.14,319.49Z"/><path class="cls-21" d="M26.85,328.88c0,.66,0,1.32.1,2H50.32l.17-.16c.74-.62,1.5-1.22,2.26-1.82Z"/></g><path class="cls-22" d="M205.1,118.72c-.24,3.18,2.65,2.93,3.73,1.67a5.88,5.88,0,0,0,1-2.34Z"/><path class="cls-23" d="M207.25,109.39a18.9,18.9,0,0,0,.91,4.27c.19.59.76,1.5.48,2.11a4.76,4.76,0,0,1-.62.87l-.69.92c-.14.19.12.28.26.29a.79.79,0,0,0,.64-.27,13.11,13.11,0,0,0,1.34-1.82c.34-.68-.12-1.42-.35-2.07a19.67,19.67,0,0,1-1-4.56c0-.32-1-.11-1,.26Z"/><path class="cls-23" d="M205.32,108.83l0,0a.42.42,0,0,0-.24-.14,6.63,6.63,0,0,0-3.34,0,7,7,0,0,0-2.93,1.14c-.3.24-.06.85.34.68s.54-.4.83-.55a6.48,6.48,0,0,1,3.49-.36,3,3,0,0,0,.84,0,1.37,1.37,0,0,0,.69-.29C205.11,109.2,205.44,109,205.32,108.83Z"/><path class="cls-23" d="M213.91,106.52h0a10.28,10.28,0,0,0-1.08-.3,5.62,5.62,0,0,0-.71,0,7.18,7.18,0,0,0-1.22.18,5.17,5.17,0,0,0-1.26.47c-.87.45-1.51.69-1.38,1s.47.33.63.24a9,9,0,0,1,2.28-.92,5.35,5.35,0,0,1,2.41-.27c.11,0,.6-.08.44-.26Z"/><path class="cls-23" d="M212.13,110.56l-.06-.06a.82.82,0,0,0-1.08.14,1.6,1.6,0,0,0-.21,1.46,1.06,1.06,0,0,0,.42.68c.74.45,1.12-.46,1.17-1A1.61,1.61,0,0,0,212.13,110.56Zm-.65,1.63,0,.12a.61.61,0,0,1,0-.12Z"/><path class="cls-23" d="M204.34,111.78c-.73-.44-1.41.53-1.36,1.17s.15,1.41.71,1.74a.59.59,0,0,0,.76-.22,2.46,2.46,0,0,0,.4-1.47A1.38,1.38,0,0,0,204.34,111.78Z"/><path class="cls-23" d="M243.33,125.5l-.14,0a1,1,0,0,0-.84.32,1.23,1.23,0,0,0-.32.78.61.61,0,0,0,.82.52,1.23,1.23,0,0,0,.86-.8A.58.58,0,0,0,243.33,125.5Z"/><path class="cls-23" d="M249.2,130.75a.59.59,0,0,0-.55-.6,1.45,1.45,0,0,0-1.47.79.84.84,0,0,0,0,.71.93.93,0,0,0,1.2.27A1.51,1.51,0,0,0,249.2,130.75Z"/><path class="cls-23" d="M246.8,127.77l-.06,0-.07,0-.07,0h0l-.16.05a3.63,3.63,0,0,1-.59.11c-.52.08-1,.13-1.56.21-.69.11-2.35.32-2.18,1.35.1.6.57,1.11.52,1.74,0,.39,1,.2,1-.13a3.53,3.53,0,0,0-.43-1.54.81.81,0,0,1-.07-.57c0-.07,0,0,0,0s.1-.08,0,0l.09-.05.05,0,.09,0,.09,0,.31-.07.09,0,.17,0,.36-.05c.49-.07,1-.12,1.47-.2a3.92,3.92,0,0,0,1.51-.47c.14-.08.28-.26.09-.37a.77.77,0,0,0-.69.09Z"/><path class="cls-23" d="M248.38,127.61a5.17,5.17,0,0,1,3,3.42c0,.12.61,0,.58-.16a5.23,5.23,0,0,0-3-3.46.53.53,0,0,0-.37,0s-.27.12-.18.17Z"/><path class="cls-23" d="M244,123.31a5.46,5.46,0,0,1,2.26,2.23c.06.11.3.06.39,0s.21-.15.15-.27a5.73,5.73,0,0,0-2.34-2.29.42.42,0,0,0-.42,0c-.08.06-.16.2,0,.27Z"/><path class="cls-3" d="M187.87,111.51a.86.86,0,0,0-1-.17,1.5,1.5,0,0,0-.7.77,2.15,2.15,0,0,0-.14.26,2.89,2.89,0,0,1-.24-1,6.8,6.8,0,0,1,.39-2.36c.06-.23-.53-.15-.59.06a6.4,6.4,0,0,0-.35,2.74,2.73,2.73,0,0,0,.53,1.21l0,0a1.42,1.42,0,0,0,.85.51,1.35,1.35,0,0,0,1.25-2.11Z"/><path class="cls-3" d="M260.42,139.19a2.81,2.81,0,0,1-.9,1.34,1.44,1.44,0,0,0-.87-1.07,1.36,1.36,0,0,0-1.56.51.93.93,0,0,0,.63,1.34,2.19,2.19,0,0,0,1.52-.18.48.48,0,0,0,.3-.15l.22-.14a3.17,3.17,0,0,0,1.25-1.71C261.08,138.9,260.49,139,260.42,139.19Z"/><path class="cls-22" d="M242.45,134.84c-2.92.28-5.11-.78-2.92-3.59Z"/><path class="cls-4" d="M183.17,110.39a28.77,28.77,0,0,1-2.35-9.79,19.47,19.47,0,0,1,2-9.69A19,19,0,0,1,189,83.66a15.91,15.91,0,0,1,4.68-2.29,14.87,14.87,0,0,1,4.15-.48,31.92,31.92,0,0,1,4.26.23,14.14,14.14,0,0,1,4.46,1.49A14.46,14.46,0,0,1,213,89.33c.34.73.73,1.45,1,2.21a6.31,6.31,0,0,1,.27,2.86,9.61,9.61,0,0,1-2,4.71,12.58,12.58,0,0,1-8.44,4.49,36.45,36.45,0,0,1-6.69.1c-1.14,0-2.27-.09-3.41-.08a7.45,7.45,0,0,0-2.05.21,2.17,2.17,0,0,0-1.54,2.13,46.83,46.83,0,0,0-.06,6.38c0,.17.49.07.48-.13a47.46,47.46,0,0,1,.06-6.31,2.32,2.32,0,0,1,.56-1.5,2.88,2.88,0,0,1,1.88-.48c3.91-.12,7.83.56,11.7-.19a13,13,0,0,0,7.79-4.38,9.89,9.89,0,0,0,2.12-4.69,6.94,6.94,0,0,0,0-2.57,12.24,12.24,0,0,0-1-2.44,15.2,15.2,0,0,0-6-6.88A14.64,14.64,0,0,0,203.39,81a22.73,22.73,0,0,0-4.35-.41,15.87,15.87,0,0,0-8.25,1.62,19.2,19.2,0,0,0-7.21,6.53,19.82,19.82,0,0,0-3.22,9.09,26.63,26.63,0,0,0,1.43,10.32c.26.79.56,1.56.9,2.33.07.18.55,0,.48-.13Z"/><path class="cls-4" d="M190.37,111.66c-.25-2.32-2.08-7-5.2-5.21a5.18,5.18,0,0,0-1.52,7.28,4.76,4.76,0,0,0,3.86,2c.19,0,.51-.29.19-.29a4.55,4.55,0,0,1-4.47-4.7,5.19,5.19,0,0,1,1.42-3.44,2.3,2.3,0,0,1,2-.85,2.77,2.77,0,0,1,1.53,1.07,8.29,8.29,0,0,1,1.67,4.32c0,.17.51.07.49-.13Z"/><path class="cls-4" d="M188.37,115.92c-.49,3.21,1.19,6.27,3.39,8.48s5.18,3.92,8.39,3.61c.26,0,.39-.35.06-.31-3.19.3-6.16-1.54-8.27-3.78s-3.54-5-3.08-8c0-.22-.46-.15-.49,0Z"/><path class="cls-4" d="M184.32,115a22.45,22.45,0,0,0,7.59,17.88,21.19,21.19,0,0,0,4.79,3.17c.13.07.52-.13.46-.16a22.37,22.37,0,0,1-11.93-15.37,21,21,0,0,1-.42-5.64c0-.08-.48,0-.49.12Z"/><path class="cls-4" d="M197.51,136.11a75.24,75.24,0,0,0,2.75-7.85c.05-.17-.43-.11-.48.06a81.09,81.09,0,0,1-2.75,7.85c-.07.16.41.1.48-.06Z"/><path class="cls-4" d="M200.55,125a9,9,0,0,1-.15,1.8,11.64,11.64,0,0,1-.49,1.75c-.09.26.4.26.46.05a13.43,13.43,0,0,0,.51-1.78,8.84,8.84,0,0,0,.16-1.85c0-.25-.49-.18-.49,0Z"/><path class="cls-4" d="M195.7,123.8a11.85,11.85,0,0,0,3.51,1.09,13,13,0,0,0,4,.23,10.29,10.29,0,0,0,5.83-2.76c.22-.2-.25-.28-.4-.13a9.6,9.6,0,0,1-5.58,2.57,12.41,12.41,0,0,1-3.44-.21,11.52,11.52,0,0,1-3.54-1.07c-.18-.1-.6.15-.37.28Z"/><path class="cls-4" d="M212.72,99.14c.31,2.44.63,4.87.74,7.33a35.91,35.91,0,0,1-.38,7.1,16.53,16.53,0,0,1-1.19,4.63,12.38,12.38,0,0,1-3.25,4c-.21.19.26.2.39.09a12.75,12.75,0,0,0,3.31-4.13,16,16,0,0,0,1.2-4.53,37.43,37.43,0,0,0,.43-6.85c-.1-2.62-.43-5.22-.77-7.82,0-.17-.51-.06-.48.13Z"/><path class="cls-4" d="M183,112.05a33.13,33.13,0,0,0-3.62,4.14c-.56.77-1.08,1.56-1.57,2.37a9.27,9.27,0,0,0-1.14,2.32c-.5,1.83.65,3.7,1.07,5.44a14.19,14.19,0,0,1,.43,3A11.83,11.83,0,0,1,178,131l-.12.68a1,1,0,0,1-.08.3.59.59,0,0,1-.62.11c-.4-.23-.72-1-1-1.4l-.92-1.45-2-3.09c-.08-.13-.44,0-.47.12-.3,1.44-.64,2.88-.83,4.35a25.4,25.4,0,0,0-.12,4.27c0,.15.49.06.48-.13a24.54,24.54,0,0,1,.15-4.37c.18-1.41.51-2.79.8-4.18l-.46.12,1.85,2.89a24.51,24.51,0,0,0,1.88,2.91,1,1,0,0,0,1.36.32,1.08,1.08,0,0,0,.37-.72,8.91,8.91,0,0,0,.23-1.7,16.3,16.3,0,0,0-1.14-6.13,5,5,0,0,1-.26-3.35,13.75,13.75,0,0,1,1.54-2.78,31.88,31.88,0,0,1,4.61-5.61c.2-.2-.27-.19-.39-.08Z"/><path class="cls-4" d="M172.39,111.54a14,14,0,0,1,7,4.5c.08.1.54-.06.45-.17a14.05,14.05,0,0,0-7-4.52c-.11,0-.54.15-.39.19Z"/><path class="cls-4" d="M180.5,103.82A47.36,47.36,0,0,0,167.31,119a45.07,45.07,0,0,0-2.39,5.07c-.06.15.42.1.48-.06a46.91,46.91,0,0,1,15.49-20.08c.21-.16-.27-.16-.39-.07Z"/><path class="cls-4" d="M165,123.94a252.26,252.26,0,0,0,18.46,26.17q2.64,3.34,5.37,6.6c.12.14.58,0,.44-.19A297.84,297.84,0,0,1,170,130.91c-1.58-2.35-3.11-4.74-4.57-7.17-.09-.15-.56,0-.44.2Z"/><path class="cls-4" d="M186.22,153.65a70,70,0,0,0,9.82-.55c2.52-.3,5-.7,7.56-.88a153.76,153.76,0,0,1,15.63-.27c2.51.08,5,.2,7.53.45.22,0,.5-.28.18-.31a126.91,126.91,0,0,0-14.46-.52,117.23,117.23,0,0,0-14.63,1,74.34,74.34,0,0,1-11.45.77c-.21,0-.5.31-.18.32Z"/><path class="cls-4" d="M156.23,134a96.07,96.07,0,0,1,8.58-10.2c.22-.22-.25-.32-.4-.16a97.17,97.17,0,0,0-8.59,10.2c-.18.25.27.34.41.16Z"/><path class="cls-4" d="M155.54,133.9a148,148,0,0,0,8.5,19.3q2.47,4.67,5.28,9.14c1.64,2.62,3.28,5.24,6.21,6.55a24.7,24.7,0,0,0,4.68,1.4,45.24,45.24,0,0,0,5.42.85,98.56,98.56,0,0,0,11.14.14c7.33-.11,14.67-.12,22-.45a98.72,98.72,0,0,0,23.63-3.48c.28-.08.23-.29-.05-.2-13.78,4.07-28.44,3.63-42.66,3.85-3.64.06-7.29.21-10.92.09a42.93,42.93,0,0,1-10.86-1.7,11.37,11.37,0,0,1-4.27-2.13,16,16,0,0,1-2.89-3.56c-1.9-2.93-3.68-5.95-5.35-9A146.17,146.17,0,0,1,156,133.77c-.06-.15-.53,0-.49.13Z"/><path class="cls-4" d="M160.08,144.77c-4.49,11.56-9.4,22.95-14.51,34.25q-2.23,4.92-4.49,9.82c-.12.25.37.27.47.06,5.18-11.26,10.28-22.57,15-34.05q2.06-5,4-10c.1-.27-.38-.29-.47-.07Z"/><path class="cls-4" d="M142.68,187.28l29.58,14.52,8.58,4.22c.12.06.51-.14.45-.17l-29.57-14.52-8.59-4.21c-.12-.06-.51.14-.45.16Z"/><path class="cls-4" d="M156.26,133.84c.16-3.67.22-7.34.38-11,0-.2-.48-.11-.49.06-.15,3.66-.21,7.33-.37,11,0,.2.48.1.48-.06Z"/><path class="cls-4" d="M156.59,122.92a80.23,80.23,0,0,1,6.67-6,3.48,3.48,0,0,1,2-1c.61-.06,1.23-.11,1.84-.21a16.73,16.73,0,0,0,3.07-.87c.31-.11,0-.33-.21-.25a15.27,15.27,0,0,1-3.71.92,10.93,10.93,0,0,0-1.8.22,4.48,4.48,0,0,0-1.55,1,80.33,80.33,0,0,0-6.74,6c-.21.21.26.25.39.11Z"/><path class="cls-4" d="M142.27,188q-8.57,12.56-18,24.44c-2.79,3.5-5.68,6.9-8.53,10.36-.46.56-.9,1.14-1.33,1.72-1.69,2.26-3.34,4.56-5,6.85q-3.72,5.19-7.41,10.4-4.44,6.27-8.87,12.55l-9.45,13.45-9.18,13.09-7.92,11.33-5.81,8.32c-.94,1.34-1.9,2.66-2.81,4l-.12.17c-.13.19.36.16.46,0l1.93-2.77,5.16-7.39,7.49-10.72,9-12.79,9.47-13.47q4.53-6.45,9.09-12.89,3.92-5.53,7.85-11c1.88-2.62,3.75-5.23,5.66-7.82s4.15-5.2,6.29-7.8q9.6-11.62,18.33-24c1.42-2,2.82-4,4.2-6,.13-.2-.36-.17-.45,0Z"/><path class="cls-4" d="M58.44,304.91c8.09,3.33,16,7,24.13,10.33,2.05.85,4.11,1.68,6.18,2.46a.38.38,0,0,0,.35-.09l8.51-9.74,13.46-15.37,3.07-3.51c.19-.22-.27-.24-.39-.1l-8.52,9.73L91.78,314l-3.08,3.51.34-.09c-8.1-3.07-16-6.68-24-10.11-2.08-.9-4.17-1.79-6.27-2.65-.16-.07-.59.16-.38.25Z"/><path class="cls-4" d="M58.59,304.29c-2.71,4.37-6.26,8.14-9.08,12.43-.11.16.36.1.44,0,2.83-4.29,6.38-8.06,9.09-12.43.1-.17-.37-.11-.45,0Z"/><path class="cls-4" d="M78.58,313.41l-6.89,5.47c-.21.16.27.14.38.05L79,313.47c.21-.17-.27-.15-.38-.06Z"/><path class="cls-4" d="M49.64,316.87l16.43,1.63,5.73.57c.21,0,.5-.3.17-.33-6.75-.65-13.49-1.33-20.23-2l-1.92-.19c-.22,0-.5.29-.18.32Z"/><path class="cls-4" d="M265.07,313.48a177,177,0,0,0,21.64,9.13c.11,0,.54-.14.4-.18a178.44,178.44,0,0,1-21.59-9.11c-.13-.07-.51.13-.45.16Z"/><path class="cls-4" d="M286.71,322.65a35.42,35.42,0,0,1-.09,4.12c0,.07.47,0,.48-.13a35.42,35.42,0,0,0,.09-4.12c0-.08-.48,0-.48.13Z"/><path class="cls-4" d="M287,326.59H263.59c-.15,0-.52.23-.2.23H286.8c.15,0,.52-.23.2-.23Z"/><path class="cls-4" d="M263.51,326.41q-2.56-2.12-5.26-4.07c-.18-.13-.59.12-.37.29,1.8,1.3,3.55,2.65,5.26,4.07.17.14.59-.11.37-.29Z"/><path class="cls-4" d="M258.31,322.45h-5.68c-.28,0-.37.37,0,.37h5.68c.28,0,.37-.37,0-.37Z"/><path class="cls-4" d="M252.35,322.71a26.49,26.49,0,0,1,1.23,4.28c0,.1.51,0,.49-.13a27.58,27.58,0,0,0-1.24-4.28c0-.11-.51,0-.48.13Z"/><path class="cls-4" d="M254.11,326.93H243.18c-.11,0-.55.2-.32.2h10.93c.11,0,.55-.2.32-.2Z"/><path class="cls-4" d="M240.35,313.42a18,18,0,0,0,.45,6.92,28.48,28.48,0,0,0,2.42,6.77c.09.17.57,0,.49-.13a28.48,28.48,0,0,1-2.39-6.58,17.93,17.93,0,0,1-.48-7c0-.2-.46-.12-.49.05Z"/><path class="cls-4" d="M226.85,285.24c3.86,9.5,8,18.88,12.24,28.22,0,.13.52,0,.48-.13-4.24-9.34-8.38-18.72-12.23-28.22-.05-.13-.53,0-.49.13Z"/><path class="cls-4" d="M239.17,313.5h29.72c.1,0,.54-.2.31-.2H239.48c-.1,0-.54.2-.31.2Z"/><path class="cls-4" d="M261.86,294.24q3.25,9.75,7,19.32c0,.1.52-.05.49-.13q-3.76-9.57-7-19.32c0-.1-.52,0-.49.13Z"/><path class="cls-4" d="M213.83,111.67c4,1.33,8.15,2.68,12.44,2.57s8.26-1.74,12.2-3.15q12.69-4.55,25.36-9.16,7.14-2.59,14.29-5.14c.32-.12,0-.2-.18-.13-8.18,2.92-16.35,5.89-24.53,8.85-4.09,1.48-8.17,3-12.27,4.43s-8.12,3.23-12.37,3.88c-5,.76-9.86-.79-14.55-2.34-.11,0-.54.14-.39.19Z"/><path class="cls-4" d="M277.81,96.82a116.29,116.29,0,0,1,10.48,22.54c0,.17.53,0,.48-.13a115.51,115.51,0,0,0-10.52-22.6c-.08-.14-.55,0-.44.19Z"/><path class="cls-4" d="M272.65,126.08c3.22-1.46,6.49-2.79,9.76-4.12,2.06-.84,4.22-1.56,6.21-2.56.3-.15,0-.32-.19-.21-2,1-4.16,1.72-6.22,2.56-3.27,1.33-6.53,2.66-9.75,4.12-.31.14,0,.31.19.21Z"/><path class="cls-4" d="M279.48,98.65A23.23,23.23,0,0,1,283.62,97c.07,0,.24-.08.22-.17s-.22-.06-.27,0a22.71,22.71,0,0,0-4.28,1.66c-.06,0-.18.09-.13.18s.26,0,.32,0Z"/><path class="cls-4" d="M283.53,96.85q4.73,9.72,9.75,19.28c.08.15.54,0,.49-.13q-5-9.56-9.75-19.28c-.08-.15-.54,0-.49.13Z"/><path class="cls-4" d="M288.7,119.3a34.2,34.2,0,0,0,4.9-3c.26-.19-.13-.36-.32-.22a31.43,31.43,0,0,1-4.8,2.93c-.29.15,0,.41.22.29Z"/><path class="cls-4" d="M285.89,100.17l3.05-6.6c.5-1.09,1-2.18,1.51-3.26a2.54,2.54,0,0,1,1.12-1.37,3.69,3.69,0,0,1,1.78-.19c.21,0,.5-.31.17-.32a3.6,3.6,0,0,0-2.71.61,4,4,0,0,0-.86,1.31l-.9,1.94-3.61,7.84c-.11.23.37.21.45,0Z"/><path class="cls-4" d="M291,97.34c.72-2.4,1.49-4.78,2.34-7.14.37-1,.69-2.25,1.68-2.87a5.85,5.85,0,0,1,3.15-.54c.22,0,.5-.33.17-.33a7.8,7.8,0,0,0-3,.36,3.77,3.77,0,0,0-2.08,2.4c-1,2.68-1.89,5.42-2.71,8.16-.06.22.43.16.49,0Z"/><path class="cls-4" d="M295.47,96.74c.85-2.61,1.73-5.2,2.66-7.78a12.06,12.06,0,0,1,1.47-3.39c.9-1.18,2.4-1.28,3.77-1.34.14,0,.52-.23.2-.22a7.7,7.7,0,0,0-3.32.66,4.82,4.82,0,0,0-2,2.82c-1.15,3.08-2.2,6.2-3.22,9.32,0,.12.43.06.48-.07Z"/><path class="cls-4" d="M300.2,98.43a43.71,43.71,0,0,0,2.54-9.06c.4-2.42.66-5.23,2.53-7a37.92,37.92,0,0,1,3.84-2.78c.59-.43,1.16-.89,1.76-1.31a1.47,1.47,0,0,1,1.82-.14,1.3,1.3,0,0,1,.4.94,2.58,2.58,0,0,1-.63,1.51c-.5.69-1,1.35-1.58,2-.92,1-2,1.93-2.88,3a6.68,6.68,0,0,0-1.17,4c-.11,1.86-.2,3.72-.3,5.57,0,.08.47,0,.48-.13.1-1.77.19-3.55.29-5.32s.29-3.3,1.54-4.65c1.09-1.18,2.26-2.25,3.26-3.51.65-.82,1.91-2.07,1.34-3.23-.48-1-1.73-.8-2.53-.37a16.13,16.13,0,0,0-1.78,1.29c-.77.58-1.56,1.15-2.36,1.69a8.67,8.67,0,0,0-3,2.79,12.06,12.06,0,0,0-1.23,3.91c-.31,1.76-.58,3.53-1,5.28a43,43,0,0,1-1.81,5.6c0,.08.43,0,.47-.09Z"/><path class="cls-4" d="M303.65,98.91A44.72,44.72,0,0,0,308,94.17a4,4,0,0,0,1.19-2.57,17.22,17.22,0,0,1,0-3.29,1.53,1.53,0,0,1,.23-.67.86.86,0,0,1,1.26,0,4.47,4.47,0,0,1,.84,1.17,28,28,0,0,1,1.53,3,16.21,16.21,0,0,1,1.06,3.1,4.49,4.49,0,0,1-.89,3.22,22.5,22.5,0,0,1-4,5,6.53,6.53,0,0,1-2.69,1.65,7.38,7.38,0,0,0-1.42.6c-2,1-4,2.17-6.06,3.23-1.42.74-2.83,1.48-4.23,2.26a23.73,23.73,0,0,0-3.09,1.87c-.26.2.14.3.31.17a24.4,24.4,0,0,1,2.9-1.77c1.4-.78,2.82-1.53,4.24-2.27,1.05-.55,2.12-1.08,3.17-1.63s2.29-1.33,3.49-1.9c.66-.31,1.37-.43,2-.78a10.23,10.23,0,0,0,2.22-1.77,22.73,22.73,0,0,0,4-5.24,4,4,0,0,0,.57-2.93,18.8,18.8,0,0,0-1.22-3.39,27.56,27.56,0,0,0-1.44-2.81c-.44-.73-1-1.54-1.94-1.48-2.29.14-1,4.15-1.35,5.43a6.17,6.17,0,0,1-1.25,1.92c-.41.5-.83,1-1.26,1.48-.91,1-1.87,2-2.87,3-.21.2.26.23.39.1Z"/><path class="cls-4" d="M195,135.22a13.5,13.5,0,0,1,1.56,3.88c.37,1.43.71,2.87,1,4.31q1,4.43,1.7,8.9c0,.14.5,0,.48-.13-.49-3.06-1.08-6.11-1.75-9.13-.6-2.69-1.06-5.67-2.57-8-.08-.12-.55,0-.45.18Z"/><path class="cls-4" d="M185.88,140l4.45,13.35c0,.1.51,0,.48-.13l-4.45-13.35c0-.1-.51,0-.48.13Z"/><path class="cls-4" d="M170.42,164.19a66.28,66.28,0,0,0,5.82,10.41,38.33,38.33,0,0,0,3.43,4.49,11.31,11.31,0,0,0,4.59,2.9c3.71,1.32,7.55,2.33,11.37,3.31s7.9,1.89,11.88,2.69c4.43.9,8.88,1.68,13.35,2.37.11,0,.52-.17.39-.19-7.83-1.21-15.62-2.69-23.32-4.58-3.83-.94-7.64-2-11.4-3.18a15.09,15.09,0,0,1-5.26-2.41,22.06,22.06,0,0,1-3.76-4.41,65.55,65.55,0,0,1-6.61-11.53c-.05-.11-.52.05-.48.13Z"/><path class="cls-4" d="M209.39,171.13c7.79,3.26,16.23,4.63,24.62,5.19.24,0,.49-.33.17-.36-8.36-.56-16.75-1.92-24.52-5.16-.21-.09-.56.22-.27.33Z"/><path class="cls-4" d="M233.59,176.13a32.06,32.06,0,0,1-12.72,14.13c-.2.12.28.06.37,0a32.35,32.35,0,0,0,12.83-14.22c0-.07-.42,0-.48.08Z"/><path class="cls-4" d="M233,177.76l2.66.47a.3.3,0,0,0,.31-.15c0-.12,0-.19-.15-.21l-2.66-.47a.3.3,0,0,0-.31.15c-.05.12,0,.19.15.21Z"/><path class="cls-4" d="M220.86,190.36c.44.14.88.31,1.33.41a6.58,6.58,0,0,0,1.4.08.64.64,0,0,0,.34-.09c.07,0,.08-.1,0-.1a6.09,6.09,0,0,1-1.35-.08c-.44-.1-.87-.26-1.31-.4a.49.49,0,0,0-.33.06s-.16.08-.06.12Z"/><path class="cls-4" d="M223.9,190.84a27.18,27.18,0,0,0,7.2-6c1.07-1.21,2.12-2.47,3.07-3.77.5-.7.89-1.44,1.33-2.19.1-.16.2-.34.32-.5s.16-.18,0-.12c.24-.12.84.08,1.13.07s.5-.3.18-.29-1.1-.25-1.55,0-.67,1-.89,1.39a27.35,27.35,0,0,1-3.34,4.52,27.84,27.84,0,0,1-7.79,6.67c-.29.16.13.26.3.17Z"/><path class="cls-4" d="M243.2,144.66a18.77,18.77,0,0,0-1.91,2.78c-.06.1,0,.16.13.16a.38.38,0,0,0,.32-.13,18,18,0,0,1,1.85-2.71c.18-.23-.28-.24-.39-.1Z"/><path class="cls-4" d="M241.28,147.54a15.4,15.4,0,0,1,5.14,4.38,9.67,9.67,0,0,1,1.44,6.3,17.76,17.76,0,0,1-2.28,6.77c-1.18,2.2-2.54,4.3-3.9,6.39q-2.38,3.69-5,7.26s.39,0,.47-.09a134.47,134.47,0,0,0,8.61-13.15c2.16-3.89,3.84-8.91,1.43-13.1a14.46,14.46,0,0,0-5.48-4.93c-.12-.07-.52.13-.46.17Z"/><path class="cls-4" d="M240.89,172.83a36.26,36.26,0,0,1,.37,6.07c0,.21.48.12.48-.06a36.1,36.1,0,0,0-.37-6.14c0-.18-.51-.06-.48.13Z"/><path class="cls-4" d="M241.18,179a17.73,17.73,0,0,1-6.66,8.87,17.46,17.46,0,0,1-5.17,2.51,15.45,15.45,0,0,1-2.69.54,4.94,4.94,0,0,1-2.72-.31c-.11-.07-.56.11-.38.21,1.12.62,2.73.4,3.94.2a18.12,18.12,0,0,0,4.42-1.37,18.69,18.69,0,0,0,7.25-5.91,17.11,17.11,0,0,0,2.49-4.82c.05-.13-.43-.07-.48.08Z"/><path class="cls-4" d="M188.42,183.94a127.47,127.47,0,0,1-8.3,23.53c-1,2.13-2,4.22-3.15,6.29-.12.23.36.21.46,0a129.35,129.35,0,0,0,9.58-23q1.05-3.42,1.9-6.89c.05-.22-.44-.16-.49,0Z"/><path class="cls-4" d="M126.13,230.66c13.21-4.72,26.68-8.62,40-13,3.73-1.23,7.45-2.49,11.15-3.81.32-.11,0-.25-.18-.18-13.21,4.72-26.69,8.62-40,13-3.74,1.23-7.46,2.49-11.16,3.81-.31.12,0,.25.19.18Z"/><path class="cls-4" d="M125.45,230.73A107.3,107.3,0,0,0,137,251.44a82.58,82.58,0,0,0,16.44,17.26A62.39,62.39,0,0,0,173.08,279a121.27,121.27,0,0,0,22,4.3,127.85,127.85,0,0,0,22.47.79c.77-.05,1.54-.11,2.3-.19.23,0,.41-.27.07-.24a114.79,114.79,0,0,1-21.93-.33,131.11,131.11,0,0,1-22.52-4A62.13,62.13,0,0,1,155.92,270a79.89,79.89,0,0,1-16.7-16.4,104.48,104.48,0,0,1-12.13-20.37c-.4-.87-.78-1.74-1.15-2.62-.07-.16-.54,0-.49.13Z"/><path class="cls-4" d="M177,213.85a63.25,63.25,0,0,0,14.27,24.47c1.89,2.05,3.9,4,6,5.85.12.1.56-.08.45-.18-7.12-6.39-13.3-13.83-17.3-22.58a60.43,60.43,0,0,1-2.91-7.69c-.05-.15-.53,0-.48.13Z"/><path class="cls-4" d="M182.84,203.1a85.06,85.06,0,0,0,12.45,21.32,164.93,164.93,0,0,0,17,18.19c3.43,3.24,7,6.4,10.48,9.55.1.08.53-.11.46-.16-6.24-5.56-12.44-11.16-18.23-17.19a116.24,116.24,0,0,1-15.43-19.45A77.59,77.59,0,0,1,183.32,203c0-.11-.51,0-.48.13Z"/><path class="cls-4" d="M218.3,197.93c5.23,2,8.86,6.68,11.06,11.68,2.61,5.9,3.51,12.34,5.37,18.47A36.28,36.28,0,0,0,239,237.6c.09.13.54,0,.49-.13-6.92-10.49-5.31-24.66-13.56-34.45a17.81,17.81,0,0,0-7.2-5.29c-.12,0-.55.14-.39.2Z"/><path class="cls-4" d="M187.64,189.35c6.84,5,15.3,7,23.59,7.94,2.61.32,5.23.54,7.85.77.11,0,.55-.19.31-.21-8.59-.75-17.41-1.53-25.35-5.17a35.12,35.12,0,0,1-5.95-3.49c-.11-.09-.54.1-.45.16Z"/><path class="cls-4" d="M188.36,184.68c6.92,5.94,16.37,6.69,25,8.07a63.23,63.23,0,0,1,8.17,1.77c.15,0,.57-.18.3-.26C213,191.64,203.5,192,195,188.31a24.46,24.46,0,0,1-6.19-3.81c-.13-.11-.58.07-.45.18Z"/><path class="cls-4" d="M224.16,191a67.82,67.82,0,0,0-4.84,6.82c0,.06.41,0,.48-.08a66.69,66.69,0,0,1,4.79-6.77c.1-.12-.36-.06-.43,0Z"/><path class="cls-4" d="M166,262.47a42.73,42.73,0,0,0,10.43,7.17q5.17,2.73,10.58,5A141.45,141.45,0,0,0,210,282a143,143,0,0,0,23.83,3.45,129.4,129.4,0,0,0,23.86-.76,107.84,107.84,0,0,0,22.63-5.34c.84-.3,1.69-.62,2.53-.95.31-.12,0-.37-.21-.27A104.47,104.47,0,0,1,260.29,284a126.32,126.32,0,0,1-23.56,1.26,143.81,143.81,0,0,1-46.47-9.73c-3.67-1.44-7.29-3-10.82-4.8a60.1,60.1,0,0,1-10.53-6.27,26.1,26.1,0,0,1-2.49-2.2c-.15-.15-.61.05-.45.21Z"/><path class="cls-4" d="M186.46,252.67a81.19,81.19,0,0,0,17.89,11.72,82.43,82.43,0,0,0,20.23,6.69,81.55,81.55,0,0,0,12,1.37c.19,0,.51-.27.19-.28a81.29,81.29,0,0,1-20.88-3.63,82.28,82.28,0,0,1-19.26-8.88,80.92,80.92,0,0,1-9.69-7.18c-.14-.12-.59.07-.45.19Z"/><path class="cls-4" d="M234.58,225.52c6,7.09,12,14.23,18,21.27s12.22,13.92,18.66,20.58q5.46,5.64,11.2,11c.13.13.59-.06.45-.19-6.8-6.33-13.26-13-19.51-19.88s-12.26-13.9-18.25-21c-3.38-4-6.76-8-10.15-12-.11-.13-.57,0-.44.2Z"/><path class="cls-4" d="M251.16,285.26A103.54,103.54,0,0,0,273,301.52a227.25,227.25,0,0,0,25.67,12.42c4.83,2,9.7,4,14.58,5.86.14.06.58-.15.38-.22-8.71-3.41-17.4-6.9-25.88-10.87a156.47,156.47,0,0,1-24.6-13.94,90.73,90.73,0,0,1-11.56-9.69c-.12-.12-.57.06-.45.18Z"/><path class="cls-4" d="M313.23,319.78a146.22,146.22,0,0,0,25.46,13.63c2.48,1,5,2,7.49,3,.12,0,.55-.14.39-.2a169.22,169.22,0,0,1-26-12.23c-2.34-1.38-4.65-2.84-6.9-4.38-.12-.08-.54.11-.45.18Z"/><path class="cls-4" d="M282.47,278.37c5,5.62,10.69,10.73,16.25,15.82,5.94,5.46,12,10.82,18,16.15,1.83,1.6,3.67,3.2,5.5,4.82.09.08.52-.11.45-.16-4.24-3.74-8.5-7.46-12.72-11.21-6.43-5.72-12.83-11.49-19-17.45-2.75-2.63-5.49-5.3-8-8.14-.08-.08-.52.09-.46.17Z"/><path class="cls-4" d="M322.26,315.18a13.45,13.45,0,0,0,4.06,4,22.07,22.07,0,0,0,5.92,2.33,15.5,15.5,0,0,1,6.12,3.35,50.73,50.73,0,0,1,4.56,4.82c.87,1,1.72,2.08,2.54,3.15.4.52,2.76,3.1,1.71,3.6-.3.15,0,.37.2.26.82-.39.6-1.22.18-1.84-.72-1.05-1.5-2.05-2.28-3.05a71.92,71.92,0,0,0-4.88-5.6,18.29,18.29,0,0,0-5.24-4.05c-2.23-1.05-4.73-1.33-6.95-2.4a13.41,13.41,0,0,1-5.49-4.74c-.11-.16-.58,0-.45.21Z"/><path class="cls-4" d="M322.58,315.16l13.29-1,3.36-.25a9.34,9.34,0,0,1,1.49-.11c.73.08,1.13.8,1.56,1.32l4.35,5.14.2-.2-2.11.54a9.11,9.11,0,0,0-1.71.51,1.33,1.33,0,0,0-.64,1.94c.53.94,1.71,1.1,2.66,1.33a26,26,0,0,1,3.64,1.14,21.33,21.33,0,0,1,11.17,9.76,17.79,17.79,0,0,1,2,8c0,.13.48,0,.48-.13a18.55,18.55,0,0,0-5.08-12.31,23.56,23.56,0,0,0-11.65-6.62c-1.1-.27-3-.51-3-2.05,0-.95,1.17-1.08,1.89-1.27l2.34-.6c.06,0,.28-.1.2-.2l-4.51-5.34a4.81,4.81,0,0,0-.95-1.06,2,2,0,0,0-1.2-.09l-3.61.27-14,1c-.16,0-.51.28-.19.26Z"/><path class="cls-4" d="M346.15,336.39l11.21,6.06c.87.47,1.73,1,2.63,1.41a2.63,2.63,0,0,0,1.38.26c1-.09,1-1,1-1.83,0-.08-.48,0-.48.13,0,.35.11,1.24-.26,1.47s-1.28-.25-1.64-.44l-4.44-2.4-8.93-4.83c-.12-.06-.51.14-.45.17Z"/><path class="cls-4" d="M119.83,258.88c3.1.3,6.28-.4,9.3-1a68.69,68.69,0,0,0,10.52-3.12c.31-.12,0-.32-.2-.23a67.91,67.91,0,0,1-10.17,3,31,31,0,0,1-9.27,1.06c-.21,0-.51.27-.18.3Z"/><path class="cls-4" d="M125.42,258.53q.42,9.59,1.76,19.11.67,4.82,1.58,9.59a86.48,86.48,0,0,0,2,9c.82,2.67,2.48,5.38,5.4,6,.18,0,.57-.23.29-.29-2.79-.61-4.38-3.21-5.17-5.76a78.69,78.69,0,0,1-2-8.86q-1.75-9.13-2.65-18.4c-.34-3.5-.58-7-.74-10.54,0-.18-.49-.08-.48.13Z"/><path class="cls-4" d="M136,302.17a25.37,25.37,0,0,1,2.63,11.31,28.24,28.24,0,0,1-2.7,11.38c-.11.24.37.22.46,0a28.48,28.48,0,0,0,2.73-11.46,25.62,25.62,0,0,0-2.63-11.4c-.1-.2-.58-.05-.49.13Z"/><path class="cls-4" d="M136,324.94a8,8,0,0,1-1.67,6.74c-1.22,1.46-3,2.71-3.24,4.72,0,.14.2.12.28.11a36.87,36.87,0,0,0,8.38-2.74c2.26-1,4.9-2.22,5.36-4.95a11.23,11.23,0,0,0-.21-3.83c-.29-1.61-.6-3.22-.91-4.83l-.92-4.92-.43-2.33a4,4,0,0,1,0-2.63c.67-1.31,2.5-1.48,3.79-1.24,1.48.28,2.81,1,4.35,1.09.2,0,.51-.29.18-.3-1.5,0-2.8-.79-4.24-1.07a5.4,5.4,0,0,0-2.9.19,2.68,2.68,0,0,0-1.86,2,5.32,5.32,0,0,0,.16,1.86c.16.9.33,1.8.5,2.7.62,3.3,1.29,6.6,1.86,9.92a8.92,8.92,0,0,1,0,4.11c-.5,1.62-1.89,2.47-3.3,3.22a36.51,36.51,0,0,1-9.87,3.49l.27.11c.31-2.23,2.44-3.49,3.64-5.21a8.2,8.2,0,0,0,1.27-6.33c0-.18-.52-.06-.48.13Z"/><path class="cls-4" d="M136.39,302.24c2.85-1.14,5.66-2.43,8.48-3.64l5.15-2.19-.35-.11c.25,4.58.45,9.18.91,13.74,0,.21.51.09.48-.13-.45-4.5-.66-9.26-.9-13.65,0-.18-.23-.17-.35-.11l-5.14,2.19c-2.83,1.2-5.63,2.5-8.49,3.63-.31.13,0,.36.21.27Z"/><path class="cls-4" d="M113.59,288.86c.9,2.86,1.88,5.68,3,8.47a77.77,77.77,0,0,0,3.38,7.72,27.48,27.48,0,0,0,4.63,6.47c1.93,2,4.08,3.74,5.93,5.8a48.35,48.35,0,0,1,5.47,7.62c.08.13.53,0,.48-.13A51.9,51.9,0,0,0,132,318.3a71.27,71.27,0,0,0-5.82-5.84,28.71,28.71,0,0,1-5.19-6.57,63.05,63.05,0,0,1-3.46-7.57q-1.89-4.72-3.4-9.59c0-.13-.53,0-.49.13Z"/><path class="cls-4" d="M126,230.47q-4.26,1.2-8.42,2.7a64.32,64.32,0,0,0-7.24,3,21,21,0,0,0-9,7.84c-2.35,4-2.23,8.65-.83,13,.88,2.76,2.14,5.39,3.29,8.05,1.07,2.48,2.1,5,3.11,7.49,2.21,5.51,4.37,11,6.76,16.47.07.15.54,0,.49-.13-2.09-4.73-4-9.52-5.91-14.32q-1.4-3.53-2.85-7c-1.08-2.57-2.25-5.09-3.3-7.67-1.82-4.42-3-9.27-1.26-13.91,1.48-3.87,4.67-6.79,8.18-8.84a48.09,48.09,0,0,1,7.48-3.32q4.69-1.75,9.53-3.12c.29-.08.24-.28,0-.2Z"/><path class="cls-4" d="M207,124a17.26,17.26,0,0,1-4.6,9.49c-.1.11.36,0,.44,0a17.37,17.37,0,0,0,4.64-9.58c0-.06-.47,0-.48.13Z"/><path class="cls-4" d="M199.69,128.49a6.71,6.71,0,0,1,1.66,2.34,19.26,19.26,0,0,1,1,2.68c.06.2.54.07.48-.13a17.53,17.53,0,0,0-1.1-2.82,6.88,6.88,0,0,0-1.69-2.33c-.16-.13-.59.09-.38.26Z"/><path class="cls-4" d="M202.38,133.51a15.71,15.71,0,0,1-.41,5.2c0,.16.45.09.49-.06a16.15,16.15,0,0,0,.4-5.27c0-.14-.5,0-.48.13Z"/><path class="cls-4" d="M199.8,139.2l2.46-.93c.07,0,.19-.11.13-.2s-.25,0-.32,0l-2.46.94c-.06,0-.19.11-.13.19s.25,0,.32,0Z"/><path class="cls-4" d="M197.34,136.17l1.73,3.21c.1.19.56,0,.44-.22L197.78,136c-.1-.19-.56,0-.44.22Z"/><path class="cls-4" d="M199.05,139.3c-.33,2.66-.06,5.37-.39,8,0,.18.47.1.49-.06.32-2.66.06-5.37.38-8,0-.19-.46-.1-.48.06Z"/><path class="cls-4" d="M201.92,138.23c1.2,4.48,2.4,9,4,13.36.05.16.53,0,.48-.13-1.55-4.37-2.76-8.88-4-13.36,0-.15-.53,0-.49.13Z"/><path class="cls-4" d="M206.65,125.39a17.66,17.66,0,0,1,3.23,6,52.28,52.28,0,0,1,1.76,5.88,7.1,7.1,0,0,1,.3,1.27,5.79,5.79,0,0,1-.21.68c-.57,1.82-1.23,3.61-2,5.38a23.92,23.92,0,0,1-3.85,6.91c-.2.22.26.28.4.13a22.61,22.61,0,0,0,3.55-6.13c.83-1.91,1.55-3.87,2.2-5.85a6.12,6.12,0,0,0,.36-1.15,3.23,3.23,0,0,0-.17-.82,56,56,0,0,0-1.59-5.56,19.19,19.19,0,0,0-3.58-6.9c-.13-.15-.59,0-.44.21Z"/><path class="cls-4" d="M213.8,111.66A81.56,81.56,0,0,1,230.14,132a49.35,49.35,0,0,1,3,6.37c0,.11.52,0,.48-.13-3.09-8.1-8.44-15.37-14.28-21.7q-2.43-2.64-5.09-5.07c-.09-.08-.53.1-.45.17Z"/><path class="cls-4" d="M227.28,128a12.46,12.46,0,0,0-3.06,13.61,12.66,12.66,0,0,0,4.32,5.49,16.13,16.13,0,0,0,7.68,2.7,30.59,30.59,0,0,0,3.83,0c1.42-.06,2.82-.2,4.23-.4.2,0,.42-.25.08-.2-5,.73-10.58.91-15-2A12.34,12.34,0,0,1,224,135.07a12.5,12.5,0,0,1,3.75-7.08c.11-.11-.35-.06-.44,0Z"/><path class="cls-4" d="M228,139.15a11,11,0,0,0,1.72,0,20.69,20.69,0,0,0,2.84-.28,6.85,6.85,0,0,0,4-2.17c.19-.22-.27-.25-.4-.11a6.33,6.33,0,0,1-4,2,16.59,16.59,0,0,1-4,.18c-.21,0-.51.27-.18.31Z"/><path class="cls-4" d="M241.08,173.23a12.08,12.08,0,0,0,4,7.94,12.26,12.26,0,0,0,8.33,2.94c.19,0,.51-.3.19-.29a11.81,11.81,0,0,1-8.36-3.1,12,12,0,0,1-3.73-7.62c0-.17-.5-.06-.48.13Z"/><path class="cls-4" d="M251.72,182.29a6.64,6.64,0,0,0,7.31,3.32,6.28,6.28,0,0,0,3.46-2.28,9.72,9.72,0,0,0,1.44-4.77c0-.23-.47-.16-.49.05a10.09,10.09,0,0,1-1.18,4.35,5.59,5.59,0,0,1-3.32,2.34,6.22,6.22,0,0,1-6.78-3.22c-.1-.17-.56,0-.44.21Z"/><path class="cls-4" d="M262.2,182.6a6.15,6.15,0,0,0,6.45-.25,5.8,5.8,0,0,0,2.33-5.9c0-.12-.51,0-.48.13a5.67,5.67,0,0,1-1.69,5.31,5.29,5.29,0,0,1-6.16.54c-.13-.08-.54.12-.45.17Z"/><path class="cls-4" d="M247,119.16a15.23,15.23,0,0,1,10.26-3.66,14.34,14.34,0,0,1,9.22,3.27c3.9,3.54,5.16,9.34,5.27,14.4a27.34,27.34,0,0,1-.9,7.85c-.9,3.29-3,6.29-3.27,9.75-.29,3.73,2.3,6.4,4.86,8.72a30.05,30.05,0,0,1,3.79,3.86,17,17,0,0,1,2.7,4.94,12.48,12.48,0,0,1-.78,10.16,10,10,0,0,1-8.69,5.13,3.78,3.78,0,0,1-2.22-.65c-.13-.09-.57.1-.45.19a5.4,5.4,0,0,0,4,.6,11.64,11.64,0,0,0,4.6-1.79,11.34,11.34,0,0,0,4.7-8.6,15.41,15.41,0,0,0-3.63-10.41c-2.39-3-6.06-5-7.74-8.5-1.94-4,.65-8.08,2-11.82a24.75,24.75,0,0,0,1.42-7.86c.18-5.35-.87-11.57-4.71-15.59a13.77,13.77,0,0,0-8.47-3.79,16.09,16.09,0,0,0-10.24,2.16,16.82,16.82,0,0,0-2.19,1.57c-.2.18.28.16.39.07Z"/><path class="cls-4" d="M246.61,119.23a4.06,4.06,0,0,0,3.24,2.25,15.8,15.8,0,0,0,5.18,0l-.27-.19a9.56,9.56,0,0,0-.38,8.08,35.26,35.26,0,0,0,3.43,6.3c.14.23,1,1.43.63,1.7s.13.36.32.22c.41-.31.19-.84,0-1.22a22.43,22.43,0,0,0-1.42-2.34,18.47,18.47,0,0,1-3.16-7.52,8.54,8.54,0,0,1,1-5.17c.1-.18-.17-.21-.28-.19a15.07,15.07,0,0,1-4.74,0,3.8,3.8,0,0,1-3.15-2.14c-.1-.19-.56,0-.44.21Z"/><path class="cls-4" d="M259,137.16a2.45,2.45,0,0,1,2.85,1.33,3.15,3.15,0,0,1-.59,3.35A4.06,4.06,0,0,1,257.7,143a7.21,7.21,0,0,1-3.63-1.82c-.14-.12-.6.07-.44.2,1.8,1.57,4.28,2.57,6.62,1.57,1.91-.82,3.26-3.44,1.69-5.22a2.86,2.86,0,0,0-3-.86c-.28.1-.21.39.08.29Z"/><path class="cls-4" d="M239.05,139.18c-2.85-1.11-3.21-4.79-2.52-7.36.89-3.36,3.22-6.21,5.69-8.55,1.55-1.46,3.24-2.75,4.82-4.16.1-.09-.34,0-.43,0-2.78,2.47-5.72,4.68-8,7.67-1.91,2.53-3.4,5.82-2.72,9a4.53,4.53,0,0,0,2.68,3.48c.13,0,.49-.15.46-.16Z"/><path class="cls-4" d="M244.26,144.52a15.14,15.14,0,0,0,5.47-.64,7.27,7.27,0,0,0,3.94-2.41c.13-.19-.36-.16-.45,0a6.88,6.88,0,0,1-3.88,2.27,14.22,14.22,0,0,1-4.9.51c-.19,0-.51.27-.18.29Z"/><path class="cls-4" d="M246.47,172.75a5,5,0,0,0,1.82,4.23,5.24,5.24,0,0,0,4.44,1c.29-.07.22-.33-.07-.26a4.67,4.67,0,0,1-4.14-1.08,4.89,4.89,0,0,1-1.57-3.92c0-.2-.47-.11-.48.06Z"/><path class="cls-4" d="M265.48,141.07a19.22,19.22,0,0,1-.72,5,15.59,15.59,0,0,0-.2,3.86,16.06,16.06,0,0,0,2.59,7.58c3,4.58,8.76,6.88,10.39,12.44a10.82,10.82,0,0,1-1,8.7c-.15.23.35.25.46.06a10.93,10.93,0,0,0,1.38-7.4,12.66,12.66,0,0,0-3.69-6.93c-1.93-2-4.2-3.55-6-5.64a15.52,15.52,0,0,1-3.5-7.74,15.2,15.2,0,0,1,0-4.76c.3-1.77.9-3.47.75-5.29,0-.23-.5-.11-.48.13Z"/><path class="cls-4" d="M266,167.59a14.44,14.44,0,0,1,.07,13.1c-.13.24.36.24.46.05a14.67,14.67,0,0,0-.09-13.36c-.09-.19-.56,0-.44.21Z"/><path class="cls-4" d="M257.31,181.4c1.91,0,3.31-1.62,4.3-3.08a7.39,7.39,0,0,0,1.21-2.84,15.15,15.15,0,0,0,.14-3.43c0-.25-.5-.17-.49,0a10,10,0,0,1-1,5.64c-.87,1.47-2.28,3.32-4.14,3.34-.27,0-.38.34-.05.33Z"/><path class="cls-4" d="M247.81,147.6c4.69,5.65,3.12,13.48.18,19.53-.11.22.37.17.45,0a25,25,0,0,0,2.86-10.58,14.11,14.11,0,0,0-3.05-9.16c-.11-.13-.57,0-.44.19Z"/><path class="cls-4" d="M255.35,153.12a7.92,7.92,0,0,0,.14,5.24,43,43,0,0,1,1.51,5.91,15.93,15.93,0,0,1-2.33,11.56c-.17.25.28.32.41.14a15.88,15.88,0,0,0,2.55-10.67,28.65,28.65,0,0,0-1.33-6c-.62-2-1.3-4.12-.49-6.14.1-.25-.38-.25-.46,0Z"/><path class="cls-4" d="M261.21,150.61c-1,8.53,10.67,12,10.18,20.42,0,.06.48,0,.49-.13.49-8.43-11.15-11.89-10.19-20.42,0,0-.47,0-.48.13Z"/><path class="cls-4" d="M198.07,101.94a17.18,17.18,0,0,0,13.32-10.87c.05-.14-.43-.08-.48.07a16.56,16.56,0,0,1-12.76,10.56c-.22,0-.42.29-.08.24Z"/><path class="cls-4" d="M197,100.44a18.1,18.1,0,0,0,8.57-16.62c0-.2-.5-.09-.49.13a17.73,17.73,0,0,1-8.4,16.29c-.28.17.13.31.32.2Z"/><path class="cls-4" d="M195,99.63a13.86,13.86,0,0,0,.84-8.41c-.49-2.33-1.72-5.66-4.25-6.41-.2,0-.57.23-.29.31A4.9,4.9,0,0,1,194,87.66a13.17,13.17,0,0,1,1.42,3.89,13.64,13.64,0,0,1-.86,8c-.11.25.38.24.46,0Z"/><path class="cls-4" d="M192.71,99.41a14.27,14.27,0,0,0-7.62-7.85c-.21-.09-.56.21-.28.33a13.86,13.86,0,0,1,7.41,7.65c.09.22.57.08.49-.13Z"/><path class="cls-4" d="M189.36,102.21c-1.84-.81-4-1.43-5.9-.47-1.63.83-2.59,2.51-3.42,4.06-.11.21.37.17.45,0a9.24,9.24,0,0,1,2.89-3.7c1.75-1.1,3.87-.43,5.6.33.15.07.59-.15.38-.24Z"/><path class="cls-4" d="M206.05,127.66a71.85,71.85,0,0,1-.57,24.17c0,.23.44.18.49,0a71.81,71.81,0,0,0,.56-24.25c0-.23-.51-.11-.48.12Z"/><path class="cls-4" d="M265.68,101.05a57.23,57.23,0,0,0,6.63,14.54c.07.11.52-.08.49-.13a56.89,56.89,0,0,1-6.63-14.54c0-.1-.51,0-.49.13Z"/><path class="cls-4" d="M272.56,115.76a23,23,0,0,0,3.43-1.25c1.12-.48,2.25-1,3.32-1.54.28-.16-.15-.18-.29-.11a33.41,33.41,0,0,1-3.21,1.49,21.75,21.75,0,0,1-3.3,1.21c-.29.06-.24.26.05.2Z"/><path class="cls-4" d="M271.77,99c1.5,5.08,4.75,9.37,7.15,14,.07.14.54,0,.49-.13-2.41-4.66-5.66-8.95-7.15-14,0-.14-.52,0-.49.13Z"/><path class="cls-4" d="M211.77,188.63a17.89,17.89,0,0,0,6.26-8.55c0-.09-.44,0-.48.09a17.73,17.73,0,0,1-6.22,8.5c-.1.07.35,0,.44,0Z"/><path class="cls-4" d="M217.56,180.21a10.92,10.92,0,0,0,4.91,1.11l-.13,0a39.21,39.21,0,0,1-2.09,4.79,14.06,14.06,0,0,1-3.12,3.62c-.09.08.35,0,.43,0a14.42,14.42,0,0,0,3.08-3.53,35.46,35.46,0,0,0,2.17-4.93c0-.06-.1-.05-.13-.05a10.39,10.39,0,0,1-4.66-1.09c-.13-.06-.49.14-.46.16Z"/><path class="cls-4" d="M219,182a1.11,1.11,0,0,0-1,1,1.23,1.23,0,0,0,.61,1.2,1.21,1.21,0,0,0,1.47-.3,1.67,1.67,0,0,0,.36-1.47.82.82,0,0,0-.17-.35.83.83,0,0,0-.4-.19,1.27,1.27,0,0,0-1,.08c-.07,0-.14.13,0,.18a.41.41,0,0,0,.34-.05c.11-.06.34,0,.45.06a.49.49,0,0,1,.33.4,1.55,1.55,0,0,1-.2,1.17.87.87,0,0,1-.32.31A.47.47,0,0,1,219,184a1.1,1.1,0,0,1-.55-.88,1.19,1.19,0,0,1,.1-.56c.06-.13.19-.32.33-.33s.26-.07.28-.16S219,182,219,182Z"/><path class="cls-4" d="M272.91,111.66a1.93,1.93,0,0,0,.85,1.67,1.59,1.59,0,0,0,1.83-.26,1.62,1.62,0,0,0,.18-1.66,1.82,1.82,0,0,0-.54-.82,1.28,1.28,0,0,0-.93-.25,1.53,1.53,0,0,0-1,.51,1.17,1.17,0,0,0-.24,1c0,.1.51,0,.49-.13a1.06,1.06,0,0,1,.11-.76.7.7,0,0,1,.49-.4c.59-.06,1,.5,1.17,1a1.79,1.79,0,0,1,0,1.4.73.73,0,0,1-.45.39,1.14,1.14,0,0,1-.69-.18,1.87,1.87,0,0,1-.75-1.6c0-.08-.49,0-.49.13Z"/><path class="cls-4" d="M172.89,170.13l-7.22,16.65a.09.09,0,0,0,0,.13l5.77,2.83a29.3,29.3,0,0,0,5.29,2.25c3.06.81,6.53.1,8-3a19.87,19.87,0,0,0,1-2.84l1.06-3.49c.05-.19-.44-.12-.49.05-.43,1.42-.85,2.84-1.28,4.26a8.19,8.19,0,0,1-1.86,3.62c-2.13,2.06-5.41,1.5-7.89.49-2.66-1.08-5.22-2.48-7.8-3.75a9.85,9.85,0,0,1-1-.48c-.43-.27-.24-.44-.05-.88l.94-2.16,1.78-4.11,4.16-9.58c.09-.23-.39-.18-.46,0Z"/><path class="cls-4" d="M160.56,196.33a73.41,73.41,0,0,1-9.67,12.54,22,22,0,0,1-2.86,2.68,5.8,5.8,0,0,1-4.24,1,19.55,19.55,0,0,1-6.94-2.27,21,21,0,0,1-6.21-5.13c-.13-.16-.59,0-.44.21A21.12,21.12,0,0,0,143,212.77a7.61,7.61,0,0,0,3.82-.17,8.56,8.56,0,0,0,3-2,68.62,68.62,0,0,0,5.74-6.31,73,73,0,0,0,5.53-7.86c.14-.22-.35-.22-.46,0Z"/><path class="cls-4" d="M30.9,325.56c3.49,1.94,7.59,1.15,11.24.14a18.68,18.68,0,0,0,5.26-2.29,51.07,51.07,0,0,1,5.32-3.08,39.52,39.52,0,0,1,6.58-2.48c.29-.08.22-.33-.07-.25A40.77,40.77,0,0,0,49.15,322a30.88,30.88,0,0,1-5.07,2.87A28.35,28.35,0,0,1,38,326.34a10.75,10.75,0,0,1-6.72-1c-.14-.08-.59.13-.38.24Z"/><path class="cls-4" d="M38.71,322.08c.73.55,1.45,1.13,2.15,1.72.07.06.24,0,.31,0s.21-.08.15-.13c-.7-.6-1.42-1.17-2.16-1.72-.07-.05-.23,0-.31,0s-.21.08-.14.13Z"/><path class="cls-4" d="M41.25,321.09a13.17,13.17,0,0,1,1.52,1.56c.11.13.58,0,.45-.19a13.17,13.17,0,0,0-1.52-1.56.31.31,0,0,0-.32,0c-.05,0-.21.13-.13.2Z"/><path class="cls-4" d="M43.32,320l1.48,1.72a.29.29,0,0,0,.32,0c.08,0,.2-.16.12-.25l-1.47-1.72a.3.3,0,0,0-.33,0c-.08,0-.2.15-.12.25Z"/><path class="cls-4" d="M49.78,316.84a188.42,188.42,0,0,1-23,9.78c-.33.11,0,.15.16.09a190.33,190.33,0,0,0,23.08-9.82c.28-.14-.17-.1-.28-.05Z"/><path class="cls-4" d="M26.61,326.8a40.47,40.47,0,0,0,.09,4.12c0,.13.5,0,.49-.13a37.78,37.78,0,0,1-.1-4.12c0-.12-.47,0-.48.13Z"/><path class="cls-4" d="M26.81,331H50.23c.19,0,.5-.29.18-.29H27c-.2,0-.51.29-.19.29Z"/><path class="cls-4" d="M50.67,330.72q2.56-2.12,5.26-4.06c.08-.06,0-.12,0-.14a.45.45,0,0,0-.34.09q-2.7,2-5.26,4.06c-.08.07,0,.12,0,.15a.47.47,0,0,0,.34-.1Z"/><path class="cls-4" d="M55.42,326.9h5.67c.16,0,.53-.23.2-.23H55.62c-.16,0-.53.23-.2.23Z"/><path class="cls-4" d="M61,326.82a29,29,0,0,0-1.23,4.28c0,.18.45.11.48-.06a27.58,27.58,0,0,1,1.24-4.28c0-.16-.43-.1-.49.06Z"/><path class="cls-4" d="M59.77,331.34H70.7c.21,0,.5-.32.17-.32H59.94c-.21,0-.5.32-.17.32Z"/><path class="cls-4" d="M71.91,319.56a18.49,18.49,0,0,1-1.81,11.67c-.06.11.41.07.48-.07a18.55,18.55,0,0,0,1.81-11.73c0-.14-.51,0-.48.13Z"/><path class="cls-4" d="M30.86,325.52c3.46,1.93,7.54,1.15,11.16.16a18.73,18.73,0,0,0,5.23-2.22,55.27,55.27,0,0,1,5.31-3.1,39.57,39.57,0,0,1,6.72-2.56c.28-.08.25-.23,0-.15a41,41,0,0,0-9.85,4.2,34.79,34.79,0,0,1-5.2,3,28.43,28.43,0,0,1-6,1.53,10.9,10.9,0,0,1-6.93-1c-.12-.07-.52.13-.46.16Z"/><path class="cls-4" d="M38.75,322.14c.73.55,1.45,1.13,2.15,1.72.17.14.59-.1.38-.28-.7-.59-1.42-1.17-2.16-1.72-.17-.13-.59.11-.37.28Z"/><path class="cls-4" d="M41.25,321.08a14.82,14.82,0,0,1,1.52,1.55s.1,0,.12,0l.19,0s.2-.07.14-.14a13.17,13.17,0,0,0-1.52-1.56s-.09,0-.12,0a.65.65,0,0,0-.19,0s-.21.08-.14.14Z"/><path class="cls-4" d="M43.32,320l1.48,1.73c.12.14.58,0,.44-.2l-1.47-1.73c-.12-.14-.59,0-.45.2Z"/><path class="cls-4" d="M281.09,321.22c-2.49,1.39-5.42,1.24-8.13.67a22,22,0,0,1-7.06-2.49,62.27,62.27,0,0,0-6.13-3.56,40.28,40.28,0,0,0-6.47-2.42c-.11,0-.53.14-.4.18a41.15,41.15,0,0,1,11.34,5.18,19.54,19.54,0,0,0,5.38,2.55,25.81,25.81,0,0,0,6.15,1.17,10.84,10.84,0,0,0,5.69-1.27c.2-.11-.28-.06-.37,0Z"/><path class="cls-4" d="M273.27,317.68c-.74.55-1.45,1.12-2.16,1.72-.07.06-.12.18,0,.25a.32.32,0,0,0,.34,0c.71-.6,1.42-1.17,2.16-1.72a.16.16,0,0,0,0-.25.32.32,0,0,0-.35,0Z"/><path class="cls-4" d="M270.67,316.8a14,14,0,0,0-1.52,1.56c-.07.08.06.08.11.08a.55.55,0,0,0,.33-.12,13.17,13.17,0,0,1,1.52-1.56c.08-.07-.08-.08-.12-.08a.63.63,0,0,0-.32.12Z"/><path class="cls-4" d="M268.62,315.65l-1.47,1.72a.11.11,0,0,0,.05.2.38.38,0,0,0,.34-.09l1.48-1.73c.06-.08.05-.17,0-.2a.41.41,0,0,0-.35.1Z"/><path class="cls-4" d="M265.75,119.57c2.35,2.88,2.86,6.69,2.89,10.29A53.66,53.66,0,0,1,267.05,143c0,.09.45,0,.47-.09a53.85,53.85,0,0,0,1.6-13c0-3.66-.5-7.56-2.89-10.49-.09-.11-.51.1-.48.13Z"/><path class="cls-4" d="M258.14,121.38A16.62,16.62,0,0,0,261.58,135c.09.12.55-.05.45-.17a16.51,16.51,0,0,1-3.4-13.48c0-.16-.46-.08-.49.07Z"/><path class="cls-4" d="M262.27,122A23.49,23.49,0,0,1,264,138.22c0,.21.44.15.49-.05a23.71,23.71,0,0,0-1.69-16.29c-.1-.19-.57,0-.49.13Z"/><path class="cls-24" d="M233.38,85.78a5.13,5.13,0,0,1,7.11-2.42c2.43,1.3,3.43,4.43,2.91,7.13a14.06,14.06,0,0,1-4.21,7c-2.57,2.56-5.28,5-8.78,6a7.72,7.72,0,0,0-1.35-6.12,20.68,20.68,0,0,0-3.94-3.52,8.59,8.59,0,0,1-3.19-4.12A6.55,6.55,0,0,1,224,83.41,6.88,6.88,0,0,1,226.16,82a5.43,5.43,0,0,1,4.43.25,5.37,5.37,0,0,1,2.7,3.52Z"/><path class="cls-25" d="M229.48,118.07c1.6.56,2.26,2.53,2.1,4.22a9.77,9.77,0,0,1-2.65,5.47c-1.39,1.53-4.11,2.93-5.78,4.13.49-1.68-.31-3.47-1.38-4.86a36.27,36.27,0,0,1-3.27-4.1,3.8,3.8,0,0,1-.53-1.51,3.4,3.4,0,0,1,.23-1.41,4.26,4.26,0,0,1,3.15-2.75A3.49,3.49,0,0,1,225,119l.12.24C226.46,118.42,228,117.57,229.48,118.07Z"/><path class="cls-26" d="M212.55,134.59a3.24,3.24,0,0,1,2.35-1.74,3,3,0,0,1,3,1.44,4.41,4.41,0,0,1,.29,2.69,6.32,6.32,0,0,1-.76,2.34,8.79,8.79,0,0,1-2,2.08c-1.34,1.14-2.57,1.66-3.91,2.8a15.22,15.22,0,0,0-2.27-2.54,21.18,21.18,0,0,1-2.94-2.73,3.76,3.76,0,0,1-.71-3.76,3.9,3.9,0,0,1,2.14-1.82,4.59,4.59,0,0,1,2.85-.3A2.89,2.89,0,0,1,212.55,134.59Z"/><g class="cls-27"><path class="cls-28" d="M240.49,83.36a5.21,5.21,0,0,0-4.16-.31,5.47,5.47,0,0,0-.88.42A4.83,4.83,0,0,1,238,85.56a6.86,6.86,0,0,1,.48,4.62,21.07,21.07,0,0,1-2,5.44,48.59,48.59,0,0,1-4.39,7.2,24.69,24.69,0,0,0,7-5.37,14.06,14.06,0,0,0,4.21-7C243.92,87.79,242.92,84.66,240.49,83.36Z"/><path class="cls-29" d="M229.48,118.07a4,4,0,0,0-3.14.5,3.65,3.65,0,0,1,1.63,2.16c.6,2.21-.49,4.67-1.52,6.58a21.21,21.21,0,0,1-3.17,4.49c1.68-1.18,4.3-2.54,5.65-4a9.77,9.77,0,0,0,2.65-5.47C231.74,120.6,231.08,118.63,229.48,118.07Z"/><path class="cls-30" d="M217.88,134.29a3,3,0,0,0-3-1.44,3.17,3.17,0,0,0-1.74.91,5.64,5.64,0,0,1,1,1.18.24.24,0,0,1,0,.13,3.59,3.59,0,0,1,.49,2.15,8.83,8.83,0,0,1-2.13,4.43c-.49.63-1,1.23-1.58,1.82.2.24.38.48.56.73,1.34-1.14,2.57-1.66,3.91-2.8a8.79,8.79,0,0,0,2-2.08,6.32,6.32,0,0,0,.76-2.34A4.41,4.41,0,0,0,217.88,134.29Z"/></g><path class="cls-4" d="M212.9,134.85c-1-3.36-6.7-2.29-7.64.62-.55,1.72.55,3.41,1.75,4.55.7.66,1.47,1.23,2.18,1.88a15.71,15.71,0,0,1,2.13,2.41c.12.16.58,0,.44-.21a18.31,18.31,0,0,0-3.26-3.38c-1.21-1-2.5-2.13-2.82-3.76-.35-1.79.89-3.05,2.48-3.59s3.7-.21,4.26,1.61c.06.21.55.08.48-.13Z"/><path class="cls-4" d="M212.59,135.06a2.86,2.86,0,0,1,3.59-1.91c1.7.61,2,2.37,1.73,3.95a6,6,0,0,1-.78,2.28,8.67,8.67,0,0,1-1.77,1.86c-1.25,1.06-2.72,1.81-4,2.86-.25.21.14.35.32.21,1.55-1.3,3.34-2.21,4.81-3.61a6.37,6.37,0,0,0,2-5,3.09,3.09,0,0,0-2.94-3,3.54,3.54,0,0,0-3.41,2.36c-.09.25.39.24.46.05Z"/><path class="cls-4" d="M225.28,119a3.72,3.72,0,0,0-4.14-1.78,4.58,4.58,0,0,0-3.35,3.46c-.41,2,1.44,3.82,2.67,5.2,1.47,1.66,3.07,3.73,2.45,6.09,0,.18.44.11.48-.06,1-3.71-2.93-6.08-4.57-8.85a3.39,3.39,0,0,1-.45-2.83A4.31,4.31,0,0,1,220,118a3.32,3.32,0,0,1,4.79,1.13c.09.16.56,0,.48-.13Z"/><path class="cls-4" d="M225.3,119.3a5.65,5.65,0,0,1,3.42-1.24,2.78,2.78,0,0,1,2.12,1.54,6,6,0,0,1,0,4.91,10.52,10.52,0,0,1-3.39,4.41c-1.42,1.08-3,1.92-4.45,3-.21.15.27.12.38,0,1.32-.94,2.75-1.72,4.06-2.67a11.24,11.24,0,0,0,3.19-3.43,7.79,7.79,0,0,0,1.23-4.59,3.77,3.77,0,0,0-1.92-3.17c-1.67-.75-3.5.26-4.89,1.13-.27.17.15.19.29.11Z"/><path class="cls-4" d="M233.53,85.68a5.46,5.46,0,0,0-4.66-4.15,6.52,6.52,0,0,0-5.68,2.52A6.25,6.25,0,0,0,222,90.49c1,2.27,3.28,3.58,5.12,5.12a9,9,0,0,1,2.72,3.54,7.84,7.84,0,0,1,.38,4.34c0,.16.45.08.48-.07a7.84,7.84,0,0,0-1.25-6c-1.34-1.9-3.44-3-5.1-4.58s-2.73-3.64-2.12-6a6.86,6.86,0,0,1,4.95-5,5.25,5.25,0,0,1,5.92,4c0,.15.52,0,.48-.13Z"/><path class="cls-4" d="M233.55,86a4.88,4.88,0,0,1,6-2.78,5.71,5.71,0,0,1,3.57,4.6c.84,4.73-3,8.63-6.22,11.52a16.94,16.94,0,0,1-6.59,4c-.3.08-.21.43.09.35A16.85,16.85,0,0,0,237,99.82a26.34,26.34,0,0,0,5.25-5.8,9,9,0,0,0,1.35-6.78,5.88,5.88,0,0,0-4.14-4.51,5.51,5.51,0,0,0-6.35,3.18c-.11.26.38.27.47.07Z"/></g></g></svg>